<svg width="650" height="335" viewBox="0 0 650 335" fill="none" xmlns="http://www.w3.org/2000/svg">
<path d="M29.47 95.98C27.02 95.7 25.9 95.7 23.31 95.7H5.95V144H23.24C25.83 144 26.95 144 29.4 143.72C40.6 142.39 49.63 134.13 49.63 119.22C49.63 104.31 40.67 97.24 29.47 95.98ZM26.74 135.25C25.13 135.39 23.87 135.39 21.84 135.39H16.94V104.24H21.91C23.94 104.24 25.2 104.31 26.81 104.45C33.6 105.22 38.08 110.26 38.08 119.36C38.08 128.67 33.53 134.48 26.74 135.25ZM91.148 124.68C91.148 114.74 84.988 105.71 73.088 105.71C61.258 105.71 53.768 114.25 53.768 125.45C53.768 138.61 61.958 144.98 72.388 144.98C81.488 144.98 88.488 140.43 90.518 131.82H79.668C79.038 135.32 76.448 137.42 72.598 137.42C68.468 137.42 65.388 135.32 64.758 128.18H90.9381C91.078 126.85 91.148 125.66 91.148 124.68ZM72.598 113.27C76.658 113.27 79.108 116 79.738 121.25H65.038C65.948 115.72 68.678 113.27 72.598 113.27ZM110.24 104.24H134.39V95.7H99.2504V144H110.24V124.05H132.08V115.51H110.24V104.24ZM145.268 92.27C141.768 92.27 139.458 94.44 139.458 97.8C139.458 101.23 141.768 103.4 145.268 103.4C148.768 103.4 151.148 101.23 151.148 97.8C151.148 94.44 148.768 92.27 145.268 92.27ZM150.798 144V106.69H139.808V144H150.798ZM214.822 95.7H203.902V125.24C203.902 126.57 203.902 127.48 203.762 128.46C203.412 133.71 200.262 136.86 194.242 136.86C188.222 136.86 185.072 133.71 184.652 128.46C184.582 127.48 184.582 126.57 184.582 125.24V95.7H173.662V123.63C173.662 125.87 173.662 127.27 173.802 129.79C174.432 137.91 180.102 144.98 194.242 144.98C208.382 144.98 214.052 137.91 214.612 129.79C214.822 127.27 214.822 125.87 214.822 123.63V95.7ZM258.351 116C257.511 109.49 252.961 105.71 245.121 105.71C241.621 105.71 238.961 106.41 236.441 108.09L233.361 112.57V106.69H222.371V144H233.361V126.71C233.361 117.19 236.581 113.27 240.921 113.27C245.191 113.27 247.291 115.65 247.571 119.43C247.711 121.32 247.711 123.21 247.711 124.61V144H258.701V122.93C258.701 119.92 258.631 117.89 258.351 116ZM272.191 92.27C268.691 92.27 266.381 94.44 266.381 97.8C266.381 101.23 268.691 103.4 272.191 103.4C275.691 103.4 278.071 101.23 278.071 97.8C278.071 94.44 275.691 92.27 272.191 92.27ZM277.721 144V106.69H266.731V144H277.721ZM323.377 106.69H311.477L302.937 135.53L294.327 106.69H282.147L296.777 144H308.817L323.377 106.69ZM360.922 124.68C360.922 114.74 354.762 105.71 342.862 105.71C331.032 105.71 323.542 114.25 323.542 125.45C323.542 138.61 331.732 144.98 342.162 144.98C351.262 144.98 358.262 140.43 360.292 131.82H349.442C348.812 135.32 346.222 137.42 342.372 137.42C338.242 137.42 335.162 135.32 334.532 128.18H360.712C360.852 126.85 360.922 125.66 360.922 124.68ZM342.372 113.27C346.432 113.27 348.882 116 349.512 121.25H334.812C335.722 115.72 338.452 113.27 342.372 113.27ZM387.784 105.71C385.614 105.71 382.884 106.69 380.994 108.65L378.194 113.83V106.69H367.204V144H378.194V128.39C378.194 117.82 381.904 114.32 390.584 114.88V105.99C389.744 105.85 388.974 105.71 387.784 105.71ZM409.575 105.71C400.195 105.71 394.035 110.19 394.035 117.47C394.035 123.84 398.585 126.99 405.585 128.74C412.165 130.28 414.545 131.75 414.545 134.41C414.545 136.79 412.445 137.91 409.785 137.91C406.705 137.91 404.185 136.02 403.415 132.52H392.565C393.545 140.92 400.195 144.98 409.715 144.98C418.465 144.98 425.535 141.34 425.535 133.57C425.535 126.57 420.915 123.56 413.705 121.74C407.055 120.06 405.025 118.66 405.025 116.14C405.025 114.18 406.495 112.71 408.875 112.71C411.605 112.71 413.215 114.46 413.845 117.54H424.695C423.785 110.75 418.605 105.71 409.575 105.71ZM466.317 124.68C466.317 114.74 460.157 105.71 448.257 105.71C436.427 105.71 428.937 114.25 428.937 125.45C428.937 138.61 437.127 144.98 447.557 144.98C456.657 144.98 463.657 140.43 465.687 131.82H454.837C454.207 135.32 451.617 137.42 447.767 137.42C443.637 137.42 440.557 135.32 439.927 128.18H466.107C466.247 126.85 466.317 125.66 466.317 124.68ZM447.767 113.27C451.827 113.27 454.277 116 454.907 121.25H440.207C441.117 115.72 443.847 113.27 447.767 113.27ZM503.147 105.71C490.757 105.71 483.477 113.69 483.477 125.31C483.477 136.93 490.757 144.98 503.147 144.98C515.467 144.98 522.817 136.93 522.817 125.31C522.817 113.69 515.467 105.71 503.147 105.71ZM503.147 137.42C497.897 137.42 494.747 133.08 494.747 125.31C494.747 117.54 497.897 113.27 503.147 113.27C508.327 113.27 511.477 117.54 511.477 125.31C511.477 133.08 508.327 137.42 503.147 137.42ZM564.897 116C564.057 109.49 559.507 105.71 551.667 105.71C548.167 105.71 545.507 106.41 542.987 108.09L539.907 112.57V106.69H528.917V144H539.907V126.71C539.907 117.19 543.127 113.27 547.467 113.27C551.737 113.27 553.837 115.65 554.117 119.43C554.257 121.32 554.257 123.21 554.257 124.61V144H565.247V122.93C565.247 119.92 565.177 117.89 564.897 116ZM44.45 195.24V186.7H1.33V195.24H17.43V235H28.35V195.24H44.45ZM79.4586 215.68C79.4586 205.74 73.2986 196.71 61.3986 196.71C49.5686 196.71 42.0786 205.25 42.0786 216.45C42.0786 229.61 50.2686 235.98 60.6986 235.98C69.7986 235.98 76.7986 231.43 78.8286 222.82H67.9786C67.3486 226.32 64.7586 228.42 60.9086 228.42C56.7786 228.42 53.6986 226.32 53.0686 219.18H79.2486C79.3886 217.85 79.4586 216.66 79.4586 215.68ZM60.9086 204.27C64.9686 204.27 67.4186 207 68.0486 212.25H53.3486C54.2586 206.72 56.9886 204.27 60.9086 204.27ZM115.281 227.93H95.6109L115.071 204.97V197.97H84.9009V205.04H103.381L83.7809 228.35V235H115.281V227.93ZM138.233 196.71C125.843 196.71 118.563 204.69 118.563 216.31C118.563 227.93 125.843 235.98 138.233 235.98C150.553 235.98 157.903 227.93 157.903 216.31C157.903 204.69 150.553 196.71 138.233 196.71ZM138.233 228.42C132.983 228.42 129.833 224.08 129.833 216.31C129.833 208.54 132.983 204.27 138.233 204.27C143.413 204.27 146.563 208.54 146.563 216.31C146.563 224.08 143.413 228.42 138.233 228.42ZM178.282 196.71C168.902 196.71 162.742 201.19 162.742 208.47C162.742 214.84 167.292 217.99 174.292 219.74C180.872 221.28 183.252 222.75 183.252 225.41C183.252 227.79 181.152 228.91 178.492 228.91C175.412 228.91 172.892 227.02 172.122 223.52H161.272C162.252 231.92 168.902 235.98 178.422 235.98C187.172 235.98 194.242 232.34 194.242 224.57C194.242 217.57 189.622 214.56 182.412 212.74C175.762 211.06 173.732 209.66 173.732 207.14C173.732 205.18 175.202 203.71 177.582 203.71C180.312 203.71 181.922 205.46 182.552 208.54H193.402C192.492 201.75 187.312 196.71 178.282 196.71ZM204.924 223.24C201.214 223.24 198.554 225.83 198.554 229.61C198.554 233.32 201.214 235.98 204.924 235.98C208.704 235.98 211.294 233.32 211.294 229.61C211.294 225.83 208.704 223.24 204.924 223.24Z" fill="white"/>
<path d="M15.456 56.96H13.632L11.392 66.592L9.168 57.12H6.752L4.464 66.544L2.352 56.96H0.416L3.264 68H5.6L7.92 58.592L10.128 68H12.448L15.456 56.96ZM23.7254 63.536C23.7254 61.136 22.3974 59.28 19.9334 59.28C17.4854 59.28 15.7734 61.088 15.7734 63.776C15.7734 66.784 17.4854 68.224 19.7574 68.224C21.6134 68.224 23.2294 67.264 23.5974 65.248H21.8214C21.6454 66.32 20.8454 66.944 19.8214 66.944C18.6694 66.944 17.7414 66.272 17.5974 64.24H23.6934C23.7254 63.936 23.7254 63.696 23.7254 63.536ZM19.8694 60.56C21.1014 60.56 21.7894 61.44 21.9174 63.008H17.6134C17.8054 61.376 18.6694 60.56 19.8694 60.56ZM27.2937 56.24H25.5337V65.456C25.5337 65.968 25.5337 66.352 25.5497 66.672C25.6137 67.76 26.2377 68.096 27.1657 68.096C27.5657 68.096 27.9657 68.064 28.3177 68.016V66.784C27.5657 66.848 27.3417 66.688 27.3097 66.208C27.2937 65.952 27.2937 65.696 27.2937 65.408V56.24ZM33.4573 59.28C31.2333 59.28 29.3453 60.896 29.3453 63.792C29.3453 66.816 31.0253 68.224 33.2493 68.224C35.2493 68.224 36.7213 67.216 37.1213 65.184H35.3293C35.0733 66.336 34.3533 66.944 33.3453 66.944C32.1613 66.944 31.2013 65.968 31.2013 63.664C31.2013 61.536 32.1773 60.56 33.4093 60.56C34.4493 60.56 35.1373 61.152 35.3933 62.448H37.1693C36.9613 60.576 35.6013 59.28 33.4573 59.28ZM42.5524 59.28C39.6884 59.28 38.2484 61.264 38.2484 63.744C38.2484 66.224 39.6884 68.224 42.5524 68.224C45.4004 68.224 46.8564 66.224 46.8564 63.744C46.8564 61.264 45.4004 59.28 42.5524 59.28ZM42.5524 66.944C41.0004 66.944 40.1044 65.664 40.1044 63.744C40.1044 61.824 41.0004 60.56 42.5524 60.56C44.0884 60.56 44.9844 61.824 44.9844 63.744C44.9844 65.664 44.0884 66.944 42.5524 66.944ZM60.508 61.36C60.316 60.192 59.42 59.28 57.852 59.28C57.1 59.28 56.508 59.424 56.044 59.776L55.26 60.896C54.94 59.952 54.092 59.28 52.748 59.28C51.98 59.28 51.388 59.424 50.94 59.776L50.364 60.768V59.504H48.604V68H50.364V63.728C50.364 61.424 51.036 60.576 52.076 60.576C52.988 60.576 53.532 61.056 53.66 61.968C53.708 62.4 53.724 62.864 53.724 63.504V68H55.468V63.728C55.468 61.424 56.156 60.576 57.18 60.576C58.092 60.576 58.652 61.056 58.764 61.968C58.812 62.4 58.828 62.864 58.828 63.504V68H60.588V62.864C60.588 62.176 60.572 61.792 60.508 61.36ZM70.241 63.536C70.241 61.136 68.913 59.28 66.449 59.28C64.001 59.28 62.289 61.088 62.289 63.776C62.289 66.784 64.001 68.224 66.273 68.224C68.129 68.224 69.745 67.264 70.113 65.248H68.337C68.161 66.32 67.361 66.944 66.337 66.944C65.185 66.944 64.257 66.272 64.113 64.24H70.209C70.241 63.936 70.241 63.696 70.241 63.536ZM66.385 60.56C67.617 60.56 68.305 61.44 68.433 63.008H64.129C64.321 61.376 65.185 60.56 66.385 60.56ZM77.7062 60.8H79.3702V59.568H77.7062V57.536H75.9622V59.568H74.7622V60.8H75.9622V65.408C75.9622 65.888 75.9622 66.256 75.9782 66.544C76.0582 67.664 76.6342 68.16 77.9622 68.16C78.3942 68.16 78.8102 68.128 79.2582 68.064V66.848C78.1062 66.96 77.7862 66.784 77.7222 65.952C77.7062 65.728 77.7062 65.536 77.7062 65.248V60.8ZM84.6461 59.28C81.7821 59.28 80.3421 61.264 80.3421 63.744C80.3421 66.224 81.7821 68.224 84.6461 68.224C87.4941 68.224 88.9501 66.224 88.9501 63.744C88.9501 61.264 87.4941 59.28 84.6461 59.28ZM84.6461 66.944C83.0941 66.944 82.1981 65.664 82.1981 63.744C82.1981 61.824 83.0941 60.56 84.6461 60.56C86.1821 60.56 87.0781 61.824 87.0781 63.744C87.0781 65.664 86.1821 66.944 84.6461 66.944ZM96.3706 68V56.96H94.6106V68H96.3706ZM106.336 61.712C106.176 60.224 105.136 59.28 103.312 59.28C102.464 59.28 101.84 59.424 101.168 59.936L100.592 60.912V59.504H98.8321V68H100.592V64.192C100.592 61.536 101.584 60.576 102.8 60.576C104 60.576 104.512 61.248 104.592 62.208C104.624 62.64 104.624 63.008 104.624 63.408V68H106.384V63.216C106.384 62.528 106.368 62.144 106.336 61.712ZM111.471 59.28C109.583 59.28 108.335 60.24 108.335 61.824C108.335 63.312 109.487 63.968 111.039 64.368C112.479 64.752 113.055 65.152 113.055 65.888C113.055 66.624 112.399 66.976 111.583 66.976C110.703 66.976 109.983 66.544 109.775 65.456H107.999C108.239 67.376 109.631 68.224 111.519 68.224C113.375 68.224 114.831 67.408 114.831 65.76C114.831 64.256 113.855 63.52 111.999 63.04C110.735 62.704 110.111 62.384 110.111 61.616C110.111 60.976 110.511 60.512 111.343 60.512C112.207 60.512 112.735 61.04 112.911 61.936H114.703C114.511 60.384 113.423 59.28 111.471 59.28ZM118.641 60.8H120.305V59.568H118.641V57.536H116.897V59.568H115.697V60.8H116.897V65.408C116.897 65.888 116.897 66.256 116.913 66.544C116.993 67.664 117.569 68.16 118.897 68.16C119.329 68.16 119.745 68.128 120.193 68.064V66.848C119.041 66.96 118.721 66.784 118.657 65.952C118.641 65.728 118.641 65.536 118.641 65.248V60.8ZM127 68H128.744C128.616 67.056 128.584 66.48 128.584 65.84V62.848C128.584 62.448 128.568 62 128.536 61.648C128.392 60.208 127.528 59.28 125.336 59.28C123.4 59.28 122.008 60.336 121.896 62.192H123.656C123.752 61.136 124.28 60.56 125.304 60.56C126.312 60.56 126.744 61.04 126.792 61.728C126.824 62.048 126.824 62.336 126.824 62.656V62.864H126.28C123.064 62.864 121.56 63.888 121.56 65.776C121.56 67.36 122.792 68.224 124.296 68.224C125.096 68.224 125.832 68.08 126.408 67.68L126.84 66.768L127 68ZM124.936 66.944C124.008 66.944 123.416 66.528 123.416 65.632C123.416 64.336 124.76 63.872 126.824 64.032V64.816C126.824 66.192 126.04 66.944 124.936 66.944ZM134.815 59.296C134.383 59.296 133.887 59.472 133.503 59.776L132.783 60.944V59.504H131.023V68H132.783V63.584C132.783 61.488 133.791 60.656 135.407 60.768V59.392C135.231 59.328 135.055 59.296 134.815 59.296ZM141.759 68H143.503C143.375 67.056 143.343 66.48 143.343 65.84V62.848C143.343 62.448 143.327 62 143.295 61.648C143.151 60.208 142.287 59.28 140.095 59.28C138.159 59.28 136.767 60.336 136.655 62.192H138.415C138.511 61.136 139.039 60.56 140.063 60.56C141.071 60.56 141.503 61.04 141.551 61.728C141.583 62.048 141.583 62.336 141.583 62.656V62.864H141.039C137.823 62.864 136.319 63.888 136.319 65.776C136.319 67.36 137.551 68.224 139.055 68.224C139.855 68.224 140.591 68.08 141.167 67.68L141.599 66.768L141.759 68ZM139.695 66.944C138.767 66.944 138.175 66.528 138.175 65.632C138.175 64.336 139.519 63.872 141.583 64.032V64.816C141.583 66.192 140.799 66.944 139.695 66.944ZM146.662 56.544C146.07 56.544 145.638 56.976 145.638 57.552C145.638 58.144 146.07 58.576 146.662 58.576C147.254 58.576 147.702 58.144 147.702 57.552C147.702 56.976 147.254 56.544 146.662 56.544ZM147.542 68V59.504H145.782V68H147.542ZM152.734 59.28C150.846 59.28 149.598 60.24 149.598 61.824C149.598 63.312 150.75 63.968 152.302 64.368C153.742 64.752 154.318 65.152 154.318 65.888C154.318 66.624 153.662 66.976 152.846 66.976C151.966 66.976 151.246 66.544 151.038 65.456H149.262C149.502 67.376 150.894 68.224 152.782 68.224C154.638 68.224 156.094 67.408 156.094 65.76C156.094 64.256 155.118 63.52 153.262 63.04C151.998 62.704 151.374 62.384 151.374 61.616C151.374 60.976 151.774 60.512 152.606 60.512C153.47 60.512 153.998 61.04 154.174 61.936H155.966C155.774 60.384 154.686 59.28 152.734 59.28ZM165.119 63.536C165.119 61.136 163.791 59.28 161.327 59.28C158.879 59.28 157.167 61.088 157.167 63.776C157.167 66.784 158.879 68.224 161.151 68.224C163.007 68.224 164.623 67.264 164.991 65.248H163.215C163.039 66.32 162.239 66.944 161.215 66.944C160.063 66.944 159.135 66.272 158.991 64.24H165.087C165.119 63.936 165.119 63.696 165.119 63.536ZM161.263 60.56C162.495 60.56 163.183 61.44 163.311 63.008H159.007C159.199 61.376 160.063 60.56 161.263 60.56Z" fill="white"/>
<path d="M13.976 305V293.96H12.6V305H13.976ZM23.7388 298.776C23.6108 297.288 22.5708 296.296 20.7148 296.296C19.8507 296.296 19.2267 296.44 18.5067 297L17.9787 297.976V296.52H16.6027V305H17.9787V301.272C17.9787 298.376 19.0987 297.384 20.4268 297.384C21.7387 297.384 22.2828 298.12 22.3628 299.112C22.3948 299.544 22.3948 299.896 22.3948 300.328V305H23.7708V300.232C23.7708 299.544 23.7708 299.208 23.7388 298.776ZM28.7511 296.296C27.0071 296.296 25.8231 297.224 25.8231 298.776C25.8231 300.264 27.0391 300.888 28.5591 301.304C29.9831 301.688 30.5591 302.12 30.5591 302.936C30.5591 303.752 29.8231 304.168 28.9111 304.168C27.9351 304.168 27.1511 303.736 26.9271 302.504H25.4871C25.7431 304.424 27.0711 305.224 28.8151 305.224C30.6071 305.224 31.9671 304.424 31.9671 302.824C31.9671 301.384 31.0391 300.616 29.0871 300.104C27.9351 299.8 27.2311 299.464 27.2311 298.616C27.2311 297.88 27.6791 297.352 28.6391 297.352C29.6311 297.352 30.2391 297.944 30.4311 298.936H31.8711C31.6951 297.384 30.6551 296.296 28.7511 296.296ZM35.4789 297.64H37.0629V296.584H35.4789V294.616H34.1029V296.584H32.9669V297.64H34.1029V302.584C34.1029 303.064 34.1029 303.416 34.1189 303.64C34.1989 304.696 34.7429 305.128 35.7989 305.128C36.1829 305.128 36.5669 305.112 36.9669 305.048V304.04C35.8949 304.168 35.5589 303.992 35.4949 303.176C35.4789 302.952 35.4789 302.808 35.4789 302.52V297.64ZM43.9105 305H45.2865C45.1585 304.056 45.1265 303.48 45.1265 302.84V299.656C45.1265 299.288 45.1105 298.872 45.0785 298.536C44.9345 297.144 44.0865 296.296 42.0705 296.296C40.1985 296.296 38.9345 297.336 38.8065 299.144H40.2465C40.3425 297.976 40.9185 297.352 42.0705 297.352C43.2065 297.352 43.6545 297.864 43.7185 298.648C43.7505 298.968 43.7505 299.304 43.7505 299.672V299.896H43.2065C39.8785 299.896 38.4385 300.888 38.4385 302.808C38.4385 304.376 39.6385 305.224 41.1745 305.224C41.9905 305.224 42.7265 305.096 43.3025 304.696L43.7665 303.784L43.9105 305ZM41.6385 304.168C40.5985 304.168 39.9425 303.72 39.9425 302.696C39.9425 301.24 41.4145 300.744 43.7505 300.92V301.784C43.7505 303.32 42.9185 304.168 41.6385 304.168ZM51.0745 296.328C50.6745 296.328 50.2425 296.472 49.8905 296.712L49.1225 297.848V296.52H47.7465V305H49.1225V300.168C49.1225 298.232 50.2105 297.384 51.6505 297.48V296.44C51.4905 296.36 51.2985 296.328 51.0745 296.328ZM58.0918 305H59.4678C59.3398 304.056 59.3078 303.48 59.3078 302.84V299.656C59.3078 299.288 59.2918 298.872 59.2598 298.536C59.1158 297.144 58.2678 296.296 56.2518 296.296C54.3798 296.296 53.1158 297.336 52.9878 299.144H54.4278C54.5238 297.976 55.0998 297.352 56.2518 297.352C57.3878 297.352 57.8358 297.864 57.8998 298.648C57.9318 298.968 57.9318 299.304 57.9318 299.672V299.896H57.3878C54.0598 299.896 52.6198 300.888 52.6198 302.808C52.6198 304.376 53.8198 305.224 55.3558 305.224C56.1718 305.224 56.9078 305.096 57.4838 304.696L57.9478 303.784L58.0918 305ZM55.8198 304.168C54.7798 304.168 54.1238 303.72 54.1238 302.696C54.1238 301.24 55.5958 300.744 57.9318 300.92V301.784C57.9318 303.32 57.0998 304.168 55.8198 304.168ZM62.6158 293.736C62.1198 293.736 61.7358 294.12 61.7358 294.616C61.7358 295.112 62.1198 295.496 62.6158 295.496C63.1118 295.496 63.4958 295.112 63.4958 294.616C63.4958 294.12 63.1118 293.736 62.6158 293.736ZM63.3038 305V296.52H61.9278V305H63.3038ZM68.4042 296.296C66.6602 296.296 65.4762 297.224 65.4762 298.776C65.4762 300.264 66.6922 300.888 68.2122 301.304C69.6362 301.688 70.2122 302.12 70.2122 302.936C70.2122 303.752 69.4762 304.168 68.5642 304.168C67.5882 304.168 66.8042 303.736 66.5802 302.504H65.1402C65.3962 304.424 66.7242 305.224 68.4682 305.224C70.2602 305.224 71.6202 304.424 71.6202 302.824C71.6202 301.384 70.6922 300.616 68.7402 300.104C67.5882 299.8 66.8842 299.464 66.8842 298.616C66.8842 297.88 67.3322 297.352 68.2922 297.352C69.2842 297.352 69.8922 297.944 70.0842 298.936H71.5242C71.3482 297.384 70.3082 296.296 68.4042 296.296ZM80.444 300.52C80.444 298.04 79.148 296.296 76.812 296.296C74.492 296.296 72.78 298.04 72.78 300.792C72.78 303.784 74.428 305.224 76.636 305.224C78.38 305.224 79.996 304.312 80.332 302.264H78.892C78.7 303.48 77.804 304.168 76.7 304.168C75.452 304.168 74.396 303.416 74.268 301.176H80.412C80.444 300.872 80.444 300.648 80.444 300.52ZM76.78 297.352C78.172 297.352 78.924 298.36 79.052 300.12H74.284C74.444 298.312 75.436 297.352 76.78 297.352ZM86.8064 293.736C86.3104 293.736 85.9264 294.12 85.9264 294.616C85.9264 295.112 86.3104 295.496 86.8064 295.496C87.3024 295.496 87.6864 295.112 87.6864 294.616C87.6864 294.12 87.3024 293.736 86.8064 293.736ZM87.4944 305V296.52H86.1184V305H87.4944ZM92.5949 296.296C90.8509 296.296 89.6669 297.224 89.6669 298.776C89.6669 300.264 90.8829 300.888 92.4029 301.304C93.8269 301.688 94.4029 302.12 94.4029 302.936C94.4029 303.752 93.6669 304.168 92.7549 304.168C91.7789 304.168 90.9949 303.736 90.7709 302.504H89.3309C89.5869 304.424 90.9149 305.224 92.6589 305.224C94.4509 305.224 95.8109 304.424 95.8109 302.824C95.8109 301.384 94.8829 300.616 92.9309 300.104C91.7789 299.8 91.0749 299.464 91.0749 298.616C91.0749 297.88 91.5229 297.352 92.4829 297.352C93.4749 297.352 94.0829 297.944 94.2749 298.936H95.7149C95.5389 297.384 94.4989 296.296 92.5949 296.296ZM105.584 296.296C104.72 296.296 103.824 296.568 103.344 296.968L102.704 297.88V293.24H101.328V305H102.704V303.832L103.264 304.664C103.696 305.016 104.592 305.224 105.296 305.224C107.488 305.224 109.44 303.768 109.44 300.632C109.44 298.152 108.064 296.296 105.584 296.296ZM105.296 304.168C104.08 304.168 102.704 303.336 102.704 301.144V300.68C102.704 298.248 103.968 297.352 105.376 297.352C107.072 297.352 107.936 298.872 107.936 300.792C107.936 303.016 106.784 304.168 105.296 304.168ZM118.349 296.52H116.973V300.248C116.973 303.144 115.917 304.136 114.589 304.136C113.437 304.136 112.749 303.48 112.621 302.52C112.573 302.088 112.557 301.624 112.557 301.352V296.52H111.181V301.608C111.181 302.296 111.197 302.632 111.261 303.064C111.453 304.232 112.477 305.224 114.237 305.224C115.101 305.224 115.725 305.08 116.445 304.552L116.973 303.56V305H118.349V296.52ZM121.666 293.736C121.17 293.736 120.786 294.12 120.786 294.616C120.786 295.112 121.17 295.496 121.666 295.496C122.162 295.496 122.546 295.112 122.546 294.616C122.546 294.12 122.162 293.736 121.666 293.736ZM122.354 305V296.52H120.978V305H122.354ZM126.302 293.24H124.926V302.616C124.926 303.08 124.926 303.448 124.942 303.736C124.99 304.808 125.582 305.064 126.382 305.064C126.702 305.064 127.054 305.048 127.358 305V304.008C126.606 304.088 126.35 303.912 126.318 303.368C126.302 303.096 126.302 302.824 126.302 302.568V293.24ZM136.551 293.24H135.175V297.688L134.615 296.856C134.183 296.504 133.287 296.296 132.583 296.296C130.391 296.296 128.439 297.752 128.439 300.888C128.439 303.368 129.815 305.224 132.295 305.224C133.159 305.224 134.055 304.952 134.535 304.552L135.175 303.64V305H136.551V293.24ZM132.503 304.168C130.807 304.168 129.943 302.648 129.943 300.728C129.943 298.504 131.095 297.352 132.583 297.352C133.799 297.352 135.175 298.184 135.175 300.376V300.84C135.175 303.272 133.911 304.168 132.503 304.168ZM139.875 293.736C139.379 293.736 138.995 294.12 138.995 294.616C138.995 295.112 139.379 295.496 139.875 295.496C140.371 295.496 140.755 295.112 140.755 294.616C140.755 294.12 140.371 293.736 139.875 293.736ZM140.563 305V296.52H139.187V305H140.563ZM150.336 298.776C150.208 297.288 149.168 296.296 147.312 296.296C146.448 296.296 145.824 296.44 145.104 297L144.576 297.976V296.52H143.2V305H144.576V301.272C144.576 298.376 145.696 297.384 147.024 297.384C148.336 297.384 148.88 298.12 148.96 299.112C148.992 299.544 148.992 299.896 148.992 300.328V305H150.368V300.232C150.368 299.544 150.368 299.208 150.336 298.776ZM160.292 296.52H158.916V297.688L158.356 296.856C157.924 296.504 157.028 296.296 156.324 296.296C154.132 296.296 152.18 297.752 152.18 300.888C152.18 303.368 153.556 305.224 156.036 305.224C156.9 305.224 157.796 304.952 158.276 304.552L158.916 303.64V303.784C158.916 304.04 158.916 304.312 158.9 304.712C158.836 306.344 157.924 307.304 156.244 307.304C154.788 307.304 153.956 306.584 153.844 305.544L153.828 305.4H152.436L152.452 305.56C152.628 307.352 153.828 308.36 156.244 308.36C158.692 308.36 160.196 307.048 160.276 304.568C160.292 304.104 160.292 303.448 160.292 302.92V296.52ZM156.244 304.168C154.548 304.168 153.684 302.648 153.684 300.728C153.684 298.504 154.836 297.352 156.324 297.352C157.54 297.352 158.916 298.184 158.916 300.376V300.84C158.916 303.272 157.652 304.168 156.244 304.168ZM171.765 294.024C171.205 293.96 170.949 293.96 170.357 293.96H166.997V305H170.277C170.869 305 171.125 305 171.685 304.936C174.245 304.616 176.133 302.6 176.133 299.352C176.133 296.056 174.325 294.344 171.765 294.024ZM171.541 303.8C171.189 303.864 170.773 303.88 170.197 303.88H168.373V295.08H170.277C170.853 295.08 171.269 295.096 171.621 295.16C173.493 295.464 174.629 296.904 174.629 299.352C174.629 301.96 173.413 303.496 171.541 303.8ZM185.085 300.52C185.085 298.04 183.789 296.296 181.453 296.296C179.133 296.296 177.421 298.04 177.421 300.792C177.421 303.784 179.069 305.224 181.277 305.224C183.021 305.224 184.637 304.312 184.973 302.264H183.533C183.341 303.48 182.445 304.168 181.341 304.168C180.093 304.168 179.037 303.416 178.909 301.176H185.053C185.085 300.872 185.085 300.648 185.085 300.52ZM181.421 297.352C182.813 297.352 183.565 298.36 183.693 300.12H178.925C179.085 298.312 180.077 297.352 181.421 297.352ZM188.898 295.08H194.706V293.96H187.522V305H188.898V300.04H194.066V298.92H188.898V295.08ZM197.072 293.736C196.576 293.736 196.192 294.12 196.192 294.616C196.192 295.112 196.576 295.496 197.072 295.496C197.568 295.496 197.952 295.112 197.952 294.616C197.952 294.12 197.568 293.736 197.072 293.736ZM197.76 305V296.52H196.384V305H197.76ZM212.658 293.96H211.282V300.792C211.282 301.144 211.282 301.48 211.25 301.768C211.122 303.16 210.21 304.136 208.514 304.136C206.818 304.136 205.906 303.16 205.778 301.768C205.746 301.48 205.746 301.144 205.746 300.792V293.96H204.37V300.92C204.37 301.272 204.37 301.592 204.402 301.912C204.562 303.752 205.81 305.224 208.514 305.224C211.218 305.224 212.466 303.752 212.626 301.912C212.658 301.592 212.658 301.272 212.658 300.92V293.96ZM222.292 298.776C222.164 297.288 221.124 296.296 219.268 296.296C218.404 296.296 217.78 296.44 217.06 297L216.532 297.976V296.52H215.156V305H216.532V301.272C216.532 298.376 217.652 297.384 218.98 297.384C220.292 297.384 220.836 298.12 220.916 299.112C220.948 299.544 220.948 299.896 220.948 300.328V305H222.324V300.232C222.324 299.544 222.324 299.208 222.292 298.776ZM225.528 293.736C225.032 293.736 224.648 294.12 224.648 294.616C224.648 295.112 225.032 295.496 225.528 295.496C226.024 295.496 226.408 295.112 226.408 294.616C226.408 294.12 226.024 293.736 225.528 293.736ZM226.216 305V296.52H224.84V305H226.216ZM235.797 296.52H234.341L231.797 303.992L229.205 296.52H227.685L230.901 305H232.581L235.797 296.52ZM244.106 300.52C244.106 298.04 242.81 296.296 240.474 296.296C238.154 296.296 236.442 298.04 236.442 300.792C236.442 303.784 238.09 305.224 240.298 305.224C242.042 305.224 243.658 304.312 243.994 302.264H242.554C242.362 303.48 241.466 304.168 240.362 304.168C239.114 304.168 238.058 303.416 237.93 301.176H244.074C244.106 300.872 244.106 300.648 244.106 300.52ZM240.442 297.352C241.834 297.352 242.586 298.36 242.714 300.12H237.946C238.106 298.312 239.098 297.352 240.442 297.352ZM249.456 296.328C249.056 296.328 248.624 296.472 248.272 296.712L247.504 297.848V296.52H246.128V305H247.504V300.168C247.504 298.232 248.592 297.384 250.032 297.48V296.44C249.872 296.36 249.68 296.328 249.456 296.328ZM254.073 296.296C252.329 296.296 251.145 297.224 251.145 298.776C251.145 300.264 252.361 300.888 253.881 301.304C255.305 301.688 255.881 302.12 255.881 302.936C255.881 303.752 255.145 304.168 254.233 304.168C253.257 304.168 252.473 303.736 252.249 302.504H250.809C251.065 304.424 252.393 305.224 254.137 305.224C255.929 305.224 257.289 304.424 257.289 302.824C257.289 301.384 256.361 300.616 254.409 300.104C253.257 299.8 252.553 299.464 252.553 298.616C252.553 297.88 253.001 297.352 253.961 297.352C254.953 297.352 255.561 297.944 255.753 298.936H257.193C257.017 297.384 255.977 296.296 254.073 296.296ZM266.113 300.52C266.113 298.04 264.817 296.296 262.481 296.296C260.161 296.296 258.449 298.04 258.449 300.792C258.449 303.784 260.097 305.224 262.305 305.224C264.049 305.224 265.665 304.312 266.001 302.264H264.561C264.369 303.48 263.473 304.168 262.369 304.168C261.121 304.168 260.065 303.416 259.937 301.176H266.081C266.113 300.872 266.113 300.648 266.113 300.52ZM262.449 297.352C263.841 297.352 264.593 298.36 264.721 300.12H259.953C260.113 298.312 261.105 297.352 262.449 297.352ZM275.291 296.296C272.411 296.296 271.083 298.36 271.083 300.76C271.083 303.144 272.411 305.224 275.291 305.224C278.171 305.224 279.499 303.144 279.499 300.76C279.499 298.36 278.171 296.296 275.291 296.296ZM275.291 304.168C273.579 304.168 272.587 302.744 272.587 300.76C272.587 298.76 273.579 297.352 275.291 297.352C277.003 297.352 277.995 298.76 277.995 300.76C277.995 302.744 277.003 304.168 275.291 304.168ZM288.498 298.776C288.37 297.288 287.33 296.296 285.474 296.296C284.61 296.296 283.986 296.44 283.266 297L282.738 297.976V296.52H281.362V305H282.738V301.272C282.738 298.376 283.858 297.384 285.186 297.384C286.498 297.384 287.042 298.12 287.122 299.112C287.154 299.544 287.154 299.896 287.154 300.328V305H288.53V300.232C288.53 299.544 288.53 299.208 288.498 298.776ZM303.308 295.08V293.96H294.06V295.08H297.996V305H299.372V295.08H303.308ZM310.672 300.52C310.672 298.04 309.376 296.296 307.04 296.296C304.72 296.296 303.008 298.04 303.008 300.792C303.008 303.784 304.656 305.224 306.864 305.224C308.608 305.224 310.224 304.312 310.56 302.264H309.12C308.928 303.48 308.032 304.168 306.928 304.168C305.68 304.168 304.624 303.416 304.496 301.176H310.64C310.672 300.872 310.672 300.648 310.672 300.52ZM307.008 297.352C308.4 297.352 309.152 298.36 309.28 300.12H304.512C304.672 298.312 305.664 297.352 307.008 297.352ZM318.437 303.912H313.461L318.357 297.688V296.584H312.181V297.672H316.757L311.829 303.944V305H318.437V303.912ZM323.632 296.296C320.752 296.296 319.424 298.36 319.424 300.76C319.424 303.144 320.752 305.224 323.632 305.224C326.512 305.224 327.84 303.144 327.84 300.76C327.84 298.36 326.512 296.296 323.632 296.296ZM323.632 304.168C321.92 304.168 320.928 302.744 320.928 300.76C320.928 298.76 321.92 297.352 323.632 297.352C325.344 297.352 326.336 298.76 326.336 300.76C326.336 302.744 325.344 304.168 323.632 304.168ZM332.167 296.296C330.423 296.296 329.239 297.224 329.239 298.776C329.239 300.264 330.455 300.888 331.975 301.304C333.399 301.688 333.975 302.12 333.975 302.936C333.975 303.752 333.239 304.168 332.327 304.168C331.351 304.168 330.567 303.736 330.343 302.504H328.903C329.159 304.424 330.487 305.224 332.231 305.224C334.023 305.224 335.383 304.424 335.383 302.824C335.383 301.384 334.455 300.616 332.503 300.104C331.351 299.8 330.647 299.464 330.647 298.616C330.647 297.88 331.095 297.352 332.055 297.352C333.047 297.352 333.655 297.944 333.847 298.936H335.287C335.111 297.384 334.071 296.296 332.167 296.296ZM337.679 303.176C337.087 303.176 336.655 303.608 336.655 304.2C336.655 304.792 337.087 305.224 337.679 305.224C338.271 305.224 338.703 304.792 338.703 304.2C338.703 303.608 338.271 303.176 337.679 303.176ZM358.551 293.96H357.095L354.647 303.784L352.151 294.12H350.295L347.735 303.768L345.415 293.96H343.847L346.759 305H348.583L351.175 295.48L353.671 305H355.479L358.551 293.96ZM366.65 300.52C366.65 298.04 365.354 296.296 363.018 296.296C360.698 296.296 358.986 298.04 358.986 300.792C358.986 303.784 360.634 305.224 362.842 305.224C364.586 305.224 366.202 304.312 366.538 302.264H365.098C364.906 303.48 364.01 304.168 362.906 304.168C361.658 304.168 360.602 303.416 360.474 301.176H366.618C366.65 300.872 366.65 300.648 366.65 300.52ZM362.986 297.352C364.378 297.352 365.13 298.36 365.258 300.12H360.49C360.65 298.312 361.642 297.352 362.986 297.352ZM374.789 296.296C373.045 296.296 371.861 297.224 371.861 298.776C371.861 300.264 373.077 300.888 374.597 301.304C376.021 301.688 376.597 302.12 376.597 302.936C376.597 303.752 375.861 304.168 374.949 304.168C373.973 304.168 373.189 303.736 372.965 302.504H371.525C371.781 304.424 373.109 305.224 374.853 305.224C376.645 305.224 378.005 304.424 378.005 302.824C378.005 301.384 377.077 300.616 375.125 300.104C373.973 299.8 373.269 299.464 373.269 298.616C373.269 297.88 373.717 297.352 374.677 297.352C375.669 297.352 376.277 297.944 376.469 298.936H377.909C377.733 297.384 376.693 296.296 374.789 296.296ZM386.908 296.52H385.532V300.248C385.532 303.144 384.476 304.136 383.148 304.136C381.996 304.136 381.308 303.48 381.18 302.52C381.132 302.088 381.116 301.624 381.116 301.352V296.52H379.74V301.608C379.74 302.296 379.756 302.632 379.82 303.064C380.012 304.232 381.036 305.224 382.796 305.224C383.66 305.224 384.284 305.08 385.004 304.552L385.532 303.56V305H386.908V296.52ZM393.793 296.296C392.929 296.296 392.033 296.568 391.553 296.968L390.913 297.88V296.52H389.537V308.136H390.913V303.832L391.473 304.664C391.905 305.016 392.801 305.224 393.505 305.224C395.697 305.224 397.649 303.768 397.649 300.632C397.649 298.152 396.273 296.296 393.793 296.296ZM393.505 304.168C392.289 304.168 390.913 303.336 390.913 301.144V300.68C390.913 298.248 392.177 297.352 393.585 297.352C395.281 297.352 396.145 298.872 396.145 300.792C396.145 303.016 394.993 304.168 393.505 304.168ZM403.774 296.296C402.91 296.296 402.014 296.568 401.534 296.968L400.894 297.88V296.52H399.518V308.136H400.894V303.832L401.454 304.664C401.886 305.016 402.782 305.224 403.486 305.224C405.678 305.224 407.63 303.768 407.63 300.632C407.63 298.152 406.254 296.296 403.774 296.296ZM403.486 304.168C402.27 304.168 400.894 303.336 400.894 301.144V300.68C400.894 298.248 402.158 297.352 403.566 297.352C405.262 297.352 406.126 298.872 406.126 300.792C406.126 303.016 404.974 304.168 403.486 304.168ZM413.004 296.296C410.124 296.296 408.796 298.36 408.796 300.76C408.796 303.144 410.124 305.224 413.004 305.224C415.884 305.224 417.212 303.144 417.212 300.76C417.212 298.36 415.884 296.296 413.004 296.296ZM413.004 304.168C411.292 304.168 410.3 302.744 410.3 300.76C410.3 298.76 411.292 297.352 413.004 297.352C414.716 297.352 415.708 298.76 415.708 300.76C415.708 302.744 414.716 304.168 413.004 304.168ZM422.403 296.328C422.003 296.328 421.571 296.472 421.219 296.712L420.451 297.848V296.52H419.075V305H420.451V300.168C420.451 298.232 421.539 297.384 422.979 297.48V296.44C422.819 296.36 422.627 296.328 422.403 296.328ZM426.204 297.64H427.788V296.584H426.204V294.616H424.828V296.584H423.692V297.64H424.828V302.584C424.828 303.064 424.828 303.416 424.844 303.64C424.924 304.696 425.468 305.128 426.524 305.128C426.908 305.128 427.292 305.112 427.692 305.048V304.04C426.62 304.168 426.284 303.992 426.22 303.176C426.204 302.952 426.204 302.808 426.204 302.52V297.64ZM437.681 296.296C436.817 296.296 435.921 296.568 435.441 296.968L434.801 297.88V296.52H433.425V308.136H434.801V303.832L435.361 304.664C435.793 305.016 436.689 305.224 437.393 305.224C439.585 305.224 441.537 303.768 441.537 300.632C441.537 298.152 440.161 296.296 437.681 296.296ZM437.393 304.168C436.177 304.168 434.801 303.336 434.801 301.144V300.68C434.801 298.248 436.065 297.352 437.473 297.352C439.169 297.352 440.033 298.872 440.033 300.792C440.033 303.016 438.881 304.168 437.393 304.168ZM446.734 296.328C446.334 296.328 445.902 296.472 445.55 296.712L444.782 297.848V296.52H443.406V305H444.782V300.168C444.782 298.232 445.87 297.384 447.31 297.48V296.44C447.15 296.36 446.958 296.328 446.734 296.328ZM452.204 296.296C449.324 296.296 447.996 298.36 447.996 300.76C447.996 303.144 449.324 305.224 452.204 305.224C455.084 305.224 456.412 303.144 456.412 300.76C456.412 298.36 455.084 296.296 452.204 296.296ZM452.204 304.168C450.492 304.168 449.5 302.744 449.5 300.76C449.5 298.76 450.492 297.352 452.204 297.352C453.916 297.352 454.908 298.76 454.908 300.76C454.908 302.744 453.916 304.168 452.204 304.168ZM458.883 293.736C458.387 293.736 458.003 294.12 458.003 294.616C458.003 295.112 458.387 295.496 458.883 295.496C459.379 295.496 459.763 295.112 459.763 294.616C459.763 294.12 459.379 293.736 458.883 293.736ZM459.571 296.52H458.195V305.8C458.195 306.04 458.195 306.28 458.163 306.504C458.099 307.016 457.763 307.288 456.883 307.208V308.328C457.091 308.36 457.283 308.36 457.539 308.36C458.851 308.36 459.411 307.784 459.523 306.76C459.555 306.472 459.571 306.056 459.571 305.736V296.52ZM469.169 300.52C469.169 298.04 467.873 296.296 465.537 296.296C463.217 296.296 461.505 298.04 461.505 300.792C461.505 303.784 463.153 305.224 465.361 305.224C467.105 305.224 468.721 304.312 469.057 302.264H467.617C467.425 303.48 466.529 304.168 465.425 304.168C464.177 304.168 463.121 303.416 462.993 301.176H469.137C469.169 300.872 469.169 300.648 469.169 300.52ZM465.505 297.352C466.897 297.352 467.649 298.36 467.777 300.12H463.009C463.169 298.312 464.161 297.352 465.505 297.352ZM474.47 296.296C472.342 296.296 470.486 297.912 470.486 300.776C470.486 303.88 472.118 305.224 474.262 305.224C476.15 305.224 477.558 304.264 477.974 302.296H476.534C476.246 303.528 475.462 304.168 474.342 304.168C473.078 304.168 471.99 303.144 471.99 300.68C471.99 298.392 473.11 297.352 474.438 297.352C475.574 297.352 476.31 298.008 476.614 299.368H478.054C477.798 297.512 476.502 296.296 474.47 296.296ZM481.507 297.64H483.091V296.584H481.507V294.616H480.131V296.584H478.995V297.64H480.131V302.584C480.131 303.064 480.131 303.416 480.147 303.64C480.227 304.696 480.771 305.128 481.827 305.128C482.211 305.128 482.595 305.112 482.995 305.048V304.04C481.923 304.168 481.587 303.992 481.523 303.176C481.507 302.952 481.507 302.808 481.507 302.52V297.64ZM487.539 296.296C485.795 296.296 484.611 297.224 484.611 298.776C484.611 300.264 485.827 300.888 487.347 301.304C488.771 301.688 489.347 302.12 489.347 302.936C489.347 303.752 488.611 304.168 487.699 304.168C486.723 304.168 485.939 303.736 485.715 302.504H484.275C484.531 304.424 485.859 305.224 487.603 305.224C489.395 305.224 490.755 304.424 490.755 302.824C490.755 301.384 489.827 300.616 487.875 300.104C486.723 299.8 486.019 299.464 486.019 298.616C486.019 297.88 486.467 297.352 487.427 297.352C488.419 297.352 489.027 297.944 489.219 298.936H490.659C490.483 297.384 489.443 296.296 487.539 296.296ZM497.919 297.64H499.503V296.584H497.919V294.616H496.543V296.584H495.407V297.64H496.543V302.584C496.543 303.064 496.543 303.416 496.559 303.64C496.639 304.696 497.183 305.128 498.239 305.128C498.623 305.128 499.007 305.112 499.407 305.048V304.04C498.335 304.168 497.999 303.992 497.935 303.176C497.919 302.952 497.919 302.808 497.919 302.52V297.64ZM504.788 296.296C501.908 296.296 500.58 298.36 500.58 300.76C500.58 303.144 501.908 305.224 504.788 305.224C507.668 305.224 508.996 303.144 508.996 300.76C508.996 298.36 507.668 296.296 504.788 296.296ZM504.788 304.168C503.076 304.168 502.084 302.744 502.084 300.76C502.084 298.76 503.076 297.352 504.788 297.352C506.5 297.352 507.492 298.76 507.492 300.76C507.492 302.744 506.5 304.168 504.788 304.168ZM517.84 296.328C517.44 296.328 517.008 296.472 516.656 296.712L515.888 297.848V296.52H514.512V305H515.888V300.168C515.888 298.232 516.976 297.384 518.416 297.48V296.44C518.256 296.36 518.064 296.328 517.84 296.328ZM524.857 305H526.233C526.105 304.056 526.073 303.48 526.073 302.84V299.656C526.073 299.288 526.057 298.872 526.025 298.536C525.881 297.144 525.033 296.296 523.017 296.296C521.145 296.296 519.881 297.336 519.753 299.144H521.193C521.289 297.976 521.865 297.352 523.017 297.352C524.153 297.352 524.601 297.864 524.665 298.648C524.697 298.968 524.697 299.304 524.697 299.672V299.896H524.153C520.825 299.896 519.385 300.888 519.385 302.808C519.385 304.376 520.585 305.224 522.121 305.224C522.937 305.224 523.673 305.096 524.249 304.696L524.713 303.784L524.857 305ZM522.585 304.168C521.545 304.168 520.889 303.72 520.889 302.696C520.889 301.24 522.361 300.744 524.697 300.92V301.784C524.697 303.32 523.865 304.168 522.585 304.168ZM529.381 293.736C528.885 293.736 528.501 294.12 528.501 294.616C528.501 295.112 528.885 295.496 529.381 295.496C529.877 295.496 530.261 295.112 530.261 294.616C530.261 294.12 529.877 293.736 529.381 293.736ZM530.069 305V296.52H528.693V305H530.069ZM535.17 296.296C533.426 296.296 532.242 297.224 532.242 298.776C532.242 300.264 533.458 300.888 534.978 301.304C536.402 301.688 536.978 302.12 536.978 302.936C536.978 303.752 536.242 304.168 535.33 304.168C534.354 304.168 533.57 303.736 533.346 302.504H531.906C532.162 304.424 533.49 305.224 535.234 305.224C537.026 305.224 538.386 304.424 538.386 302.824C538.386 301.384 537.458 300.616 535.506 300.104C534.354 299.8 533.65 299.464 533.65 298.616C533.65 297.88 534.098 297.352 535.058 297.352C536.05 297.352 536.658 297.944 536.85 298.936H538.29C538.114 297.384 537.074 296.296 535.17 296.296ZM547.21 300.52C547.21 298.04 545.914 296.296 543.578 296.296C541.258 296.296 539.546 298.04 539.546 300.792C539.546 303.784 541.194 305.224 543.402 305.224C545.146 305.224 546.762 304.312 547.098 302.264H545.658C545.466 303.48 544.57 304.168 543.466 304.168C542.218 304.168 541.162 303.416 541.034 301.176H547.178C547.21 300.872 547.21 300.648 547.21 300.52ZM543.546 297.352C544.938 297.352 545.69 298.36 545.818 300.12H541.05C541.21 298.312 542.202 297.352 543.546 297.352ZM554.372 294.888C554.484 294.2 555.172 293.96 556.212 294.152V293.016C555.924 292.968 555.588 292.936 555.236 292.936C553.972 292.936 553.14 293.624 552.996 294.856C552.964 295.144 552.948 295.56 552.948 295.88V296.584H552.036V297.64H552.948V305H554.324V297.64H556.068V296.584H554.324V295.752C554.324 295.512 554.34 295.112 554.372 294.888ZM564.765 296.52H563.389V300.248C563.389 303.144 562.333 304.136 561.005 304.136C559.853 304.136 559.165 303.48 559.037 302.52C558.989 302.088 558.973 301.624 558.973 301.352V296.52H557.597V301.608C557.597 302.296 557.613 302.632 557.677 303.064C557.869 304.232 558.893 305.224 560.653 305.224C561.517 305.224 562.141 305.08 562.861 304.552L563.389 303.56V305H564.765V296.52ZM574.529 298.776C574.401 297.288 573.361 296.296 571.505 296.296C570.641 296.296 570.017 296.44 569.297 297L568.769 297.976V296.52H567.393V305H568.769V301.272C568.769 298.376 569.889 297.384 571.217 297.384C572.529 297.384 573.073 298.12 573.153 299.112C573.185 299.544 573.185 299.896 573.185 300.328V305H574.561V300.232C574.561 299.544 574.561 299.208 574.529 298.776ZM584.486 293.24H583.11V297.688L582.55 296.856C582.118 296.504 581.222 296.296 580.518 296.296C578.326 296.296 576.374 297.752 576.374 300.888C576.374 303.368 577.75 305.224 580.23 305.224C581.094 305.224 581.99 304.952 582.47 304.552L583.11 303.64V305H584.486V293.24ZM580.438 304.168C578.742 304.168 577.878 302.648 577.878 300.728C577.878 298.504 579.03 297.352 580.518 297.352C581.734 297.352 583.11 298.184 583.11 300.376V300.84C583.11 303.272 581.846 304.168 580.438 304.168ZM588.178 303.56V303.4H586.69L585.441 306.92H586.738L588.178 303.56ZM16.44 320.296C15.576 320.296 14.68 320.568 14.2 320.968L13.56 321.88V317.24H12.184V329H13.56V327.832L14.12 328.664C14.552 329.016 15.448 329.224 16.152 329.224C18.344 329.224 20.296 327.768 20.296 324.632C20.296 322.152 18.92 320.296 16.44 320.296ZM16.152 328.168C14.936 328.168 13.56 327.336 13.56 325.144V324.68C13.56 322.248 14.824 321.352 16.232 321.352C17.928 321.352 18.792 322.872 18.792 324.792C18.792 327.016 17.64 328.168 16.152 328.168ZM29.2052 320.52H27.8293V324.248C27.8293 327.144 26.7733 328.136 25.4453 328.136C24.2933 328.136 23.6052 327.48 23.4772 326.52C23.4293 326.088 23.4132 325.624 23.4132 325.352V320.52H22.0372V325.608C22.0372 326.296 22.0532 326.632 22.1172 327.064C22.3092 328.232 23.3332 329.224 25.0932 329.224C25.9573 329.224 26.5813 329.08 27.3012 328.552L27.8293 327.56V329H29.2052V320.52ZM32.522 317.736C32.026 317.736 31.642 318.12 31.642 318.616C31.642 319.112 32.026 319.496 32.522 319.496C33.018 319.496 33.402 319.112 33.402 318.616C33.402 318.12 33.018 317.736 32.522 317.736ZM33.21 329V320.52H31.834V329H33.21ZM37.1585 317.24H35.7825V326.616C35.7825 327.08 35.7825 327.448 35.7985 327.736C35.8465 328.808 36.4385 329.064 37.2385 329.064C37.5585 329.064 37.9105 329.048 38.2145 329V328.008C37.4625 328.088 37.2065 327.912 37.1745 327.368C37.1585 327.096 37.1585 326.824 37.1585 326.568V317.24ZM47.4076 317.24H46.0316V321.688L45.4716 320.856C45.0396 320.504 44.1436 320.296 43.4396 320.296C41.2476 320.296 39.2956 321.752 39.2956 324.888C39.2956 327.368 40.6716 329.224 43.1516 329.224C44.0156 329.224 44.9116 328.952 45.3916 328.552L46.0316 327.64V329H47.4076V317.24ZM43.3596 328.168C41.6636 328.168 40.7996 326.648 40.7996 324.728C40.7996 322.504 41.9516 321.352 43.4396 321.352C44.6556 321.352 46.0316 322.184 46.0316 324.376V324.84C46.0316 327.272 44.7676 328.168 43.3596 328.168ZM56.9765 320.296C54.8485 320.296 52.9925 321.912 52.9925 324.776C52.9925 327.88 54.6245 329.224 56.7685 329.224C58.6565 329.224 60.0645 328.264 60.4805 326.296H59.0405C58.7525 327.528 57.9685 328.168 56.8485 328.168C55.5845 328.168 54.4965 327.144 54.4965 324.68C54.4965 322.392 55.6165 321.352 56.9445 321.352C58.0805 321.352 58.8165 322.008 59.1205 323.368H60.5605C60.3045 321.512 59.0085 320.296 56.9765 320.296ZM65.8693 320.296C62.9893 320.296 61.6613 322.36 61.6613 324.76C61.6613 327.144 62.9893 329.224 65.8693 329.224C68.7493 329.224 70.0773 327.144 70.0773 324.76C70.0773 322.36 68.7493 320.296 65.8693 320.296ZM65.8693 328.168C64.1573 328.168 63.1653 326.744 63.1653 324.76C63.1653 322.76 64.1573 321.352 65.8693 321.352C67.5813 321.352 68.5733 322.76 68.5733 324.76C68.5733 326.744 67.5813 328.168 65.8693 328.168ZM83.2202 322.36C83.0282 321.192 82.1642 320.296 80.6442 320.296C79.8922 320.296 79.2842 320.44 78.8522 320.792L78.1002 321.88C77.7802 320.952 76.9482 320.296 75.6522 320.296C74.9002 320.296 74.2922 320.44 73.8602 320.792L73.3162 321.752V320.52H71.9402V329H73.3162V324.808C73.3162 322.232 74.1002 321.384 75.1722 321.384C76.1322 321.384 76.7402 321.848 76.8682 322.808C76.9162 323.24 76.9322 323.704 76.9322 324.456V329H78.3082V324.808C78.3082 322.232 79.0922 321.384 80.1642 321.384C81.1242 321.384 81.7322 321.848 81.8602 322.808C81.9082 323.24 81.9242 323.704 81.9242 324.456V329H83.3002V323.816C83.3002 323.128 83.2842 322.792 83.2202 322.36ZM97.1078 322.36C96.9158 321.192 96.0518 320.296 94.5318 320.296C93.7798 320.296 93.1718 320.44 92.7398 320.792L91.9878 321.88C91.6678 320.952 90.8358 320.296 89.5398 320.296C88.7878 320.296 88.1798 320.44 87.7478 320.792L87.2038 321.752V320.52H85.8278V329H87.2038V324.808C87.2038 322.232 87.9878 321.384 89.0598 321.384C90.0198 321.384 90.6278 321.848 90.7558 322.808C90.8038 323.24 90.8198 323.704 90.8198 324.456V329H92.1958V324.808C92.1958 322.232 92.9798 321.384 94.0518 321.384C95.0118 321.384 95.6198 321.848 95.7478 322.808C95.7958 323.24 95.8118 323.704 95.8118 324.456V329H97.1878V323.816C97.1878 323.128 97.1718 322.792 97.1078 322.36ZM106.755 320.52H105.379V324.248C105.379 327.144 104.323 328.136 102.995 328.136C101.843 328.136 101.155 327.48 101.027 326.52C100.979 326.088 100.963 325.624 100.963 325.352V320.52H99.5872V325.608C99.5872 326.296 99.6033 326.632 99.6673 327.064C99.8593 328.232 100.883 329.224 102.643 329.224C103.507 329.224 104.131 329.08 104.851 328.552L105.379 327.56V329H106.755V320.52ZM116.52 322.776C116.392 321.288 115.352 320.296 113.496 320.296C112.632 320.296 112.008 320.44 111.288 321L110.76 321.976V320.52H109.384V329H110.76V325.272C110.76 322.376 111.88 321.384 113.208 321.384C114.52 321.384 115.064 322.12 115.144 323.112C115.176 323.544 115.176 323.896 115.176 324.328V329H116.552V324.232C116.552 323.544 116.552 323.208 116.52 322.776ZM119.756 317.736C119.26 317.736 118.876 318.12 118.876 318.616C118.876 319.112 119.26 319.496 119.756 319.496C120.252 319.496 120.636 319.112 120.636 318.616C120.636 318.12 120.252 317.736 119.756 317.736ZM120.444 329V320.52H119.068V329H120.444ZM124.729 321.64H126.313V320.584H124.729V318.616H123.353V320.584H122.217V321.64H123.353V326.584C123.353 327.064 123.353 327.416 123.369 327.64C123.449 328.696 123.993 329.128 125.049 329.128C125.433 329.128 125.817 329.112 126.217 329.048V328.04C125.145 328.168 124.809 327.992 124.745 327.176C124.729 326.952 124.729 326.808 124.729 326.52V321.64ZM128.985 317.736C128.489 317.736 128.105 318.12 128.105 318.616C128.105 319.112 128.489 319.496 128.985 319.496C129.481 319.496 129.865 319.112 129.865 318.616C129.865 318.12 129.481 317.736 128.985 317.736ZM129.673 329V320.52H128.297V329H129.673ZM139.269 324.52C139.269 322.04 137.973 320.296 135.637 320.296C133.317 320.296 131.605 322.04 131.605 324.792C131.605 327.784 133.253 329.224 135.461 329.224C137.205 329.224 138.821 328.312 139.157 326.264H137.717C137.525 327.48 136.629 328.168 135.525 328.168C134.277 328.168 133.221 327.416 133.093 325.176H139.237C139.269 324.872 139.269 324.648 139.269 324.52ZM135.605 321.352C136.997 321.352 137.749 322.36 137.877 324.12H133.109C133.269 322.312 134.261 321.352 135.605 321.352ZM143.754 320.296C142.01 320.296 140.826 321.224 140.826 322.776C140.826 324.264 142.042 324.888 143.562 325.304C144.986 325.688 145.562 326.12 145.562 326.936C145.562 327.752 144.826 328.168 143.914 328.168C142.938 328.168 142.154 327.736 141.93 326.504H140.49C140.746 328.424 142.074 329.224 143.818 329.224C145.61 329.224 146.97 328.424 146.97 326.824C146.97 325.384 146.042 324.616 144.09 324.104C142.938 323.8 142.234 323.464 142.234 322.616C142.234 321.88 142.682 321.352 143.642 321.352C144.634 321.352 145.242 321.944 145.434 322.936H146.874C146.698 321.384 145.658 320.296 143.754 320.296ZM157.351 329H158.727C158.599 328.056 158.567 327.48 158.567 326.84V323.656C158.567 323.288 158.551 322.872 158.519 322.536C158.375 321.144 157.527 320.296 155.511 320.296C153.639 320.296 152.375 321.336 152.247 323.144H153.687C153.783 321.976 154.359 321.352 155.511 321.352C156.647 321.352 157.095 321.864 157.159 322.648C157.191 322.968 157.191 323.304 157.191 323.672V323.896H156.647C153.319 323.896 151.879 324.888 151.879 326.808C151.879 328.376 153.079 329.224 154.615 329.224C155.431 329.224 156.167 329.096 156.743 328.696L157.207 327.784L157.351 329ZM155.079 328.168C154.039 328.168 153.383 327.72 153.383 326.696C153.383 325.24 154.855 324.744 157.191 324.92V325.784C157.191 327.32 156.359 328.168 155.079 328.168ZM168.323 322.776C168.195 321.288 167.155 320.296 165.299 320.296C164.435 320.296 163.811 320.44 163.091 321L162.563 321.976V320.52H161.187V329H162.563V325.272C162.563 322.376 163.683 321.384 165.011 321.384C166.323 321.384 166.867 322.12 166.947 323.112C166.979 323.544 166.979 323.896 166.979 324.328V329H168.355V324.232C168.355 323.544 168.355 323.208 168.323 322.776ZM178.28 317.24H176.904V321.688L176.344 320.856C175.912 320.504 175.016 320.296 174.312 320.296C172.12 320.296 170.168 321.752 170.168 324.888C170.168 327.368 171.544 329.224 174.024 329.224C174.888 329.224 175.784 328.952 176.264 328.552L176.904 327.64V329H178.28V317.24ZM174.232 328.168C172.536 328.168 171.672 326.648 171.672 324.728C171.672 322.504 172.824 321.352 174.312 321.352C175.528 321.352 176.904 322.184 176.904 324.376V324.84C176.904 327.272 175.64 328.168 174.232 328.168ZM186.216 321.64H187.8V320.584H186.216V318.616H184.84V320.584H183.704V321.64H184.84V326.584C184.84 327.064 184.84 327.416 184.856 327.64C184.936 328.696 185.48 329.128 186.536 329.128C186.92 329.128 187.304 329.112 187.704 329.048V328.04C186.632 328.168 186.296 327.992 186.232 327.176C186.216 326.952 186.216 326.808 186.216 326.52V321.64ZM196.824 320.52H195.448V324.248C195.448 327.144 194.392 328.136 193.064 328.136C191.912 328.136 191.224 327.48 191.096 326.52C191.048 326.088 191.032 325.624 191.032 325.352V320.52H189.656V325.608C189.656 326.296 189.672 326.632 189.736 327.064C189.928 328.232 190.952 329.224 192.712 329.224C193.576 329.224 194.2 329.08 194.92 328.552L195.448 327.56V329H196.824V320.52ZM202.781 320.328C202.381 320.328 201.949 320.472 201.597 320.712L200.829 321.848V320.52H199.453V329H200.829V324.168C200.829 322.232 201.917 321.384 203.357 321.48V320.44C203.197 320.36 203.005 320.328 202.781 320.328ZM212.07 322.776C211.942 321.288 210.902 320.296 209.046 320.296C208.182 320.296 207.558 320.44 206.838 321L206.31 321.976V320.52H204.934V329H206.31V325.272C206.31 322.376 207.43 321.384 208.758 321.384C210.07 321.384 210.614 322.12 210.694 323.112C210.726 323.544 210.726 323.896 210.726 324.328V329H212.102V324.232C212.102 323.544 212.102 323.208 212.07 322.776ZM219.919 321.64H221.503V320.584H219.919V318.616H218.543V320.584H217.407V321.64H218.543V326.584C218.543 327.064 218.543 327.416 218.559 327.64C218.639 328.696 219.183 329.128 220.239 329.128C220.623 329.128 221.007 329.112 221.407 329.048V328.04C220.335 328.168 219.999 327.992 219.935 327.176C219.919 326.952 219.919 326.808 219.919 326.52V321.64ZM230.623 322.776C230.495 321.288 229.455 320.296 227.599 320.296C226.735 320.296 226.111 320.44 225.391 321L224.863 321.976V317.16H223.487V329H224.863V325.272C224.863 322.376 225.983 321.416 227.311 321.384C228.623 321.352 229.167 322.12 229.247 323.112C229.279 323.544 229.279 323.896 229.279 324.328V329H230.655V324.232C230.655 323.544 230.655 323.208 230.623 322.776ZM240.132 324.52C240.132 322.04 238.836 320.296 236.5 320.296C234.18 320.296 232.468 322.04 232.468 324.792C232.468 327.784 234.116 329.224 236.324 329.224C238.068 329.224 239.684 328.312 240.02 326.264H238.58C238.388 327.48 237.492 328.168 236.388 328.168C235.14 328.168 234.084 327.416 233.956 325.176H240.1C240.132 324.872 240.132 324.648 240.132 324.52ZM236.468 321.352C237.86 321.352 238.612 322.36 238.74 324.12H233.972C234.132 322.312 235.124 321.352 236.468 321.352ZM242.841 317.736C242.345 317.736 241.961 318.12 241.961 318.616C241.961 319.112 242.345 319.496 242.841 319.496C243.337 319.496 243.721 319.112 243.721 318.616C243.721 318.12 243.337 317.736 242.841 317.736ZM243.529 329V320.52H242.153V329H243.529ZM249.493 320.328C249.093 320.328 248.661 320.472 248.309 320.712L247.541 321.848V320.52H246.165V329H247.541V324.168C247.541 322.232 248.629 321.384 250.069 321.48V320.44C249.909 320.36 249.717 320.328 249.493 320.328ZM255.988 317.736C255.492 317.736 255.108 318.12 255.108 318.616C255.108 319.112 255.492 319.496 255.988 319.496C256.484 319.496 256.868 319.112 256.868 318.616C256.868 318.12 256.484 317.736 255.988 317.736ZM256.676 329V320.52H255.3V329H256.676ZM266.72 317.24H265.344V321.688L264.784 320.856C264.352 320.504 263.456 320.296 262.752 320.296C260.56 320.296 258.608 321.752 258.608 324.888C258.608 327.368 259.984 329.224 262.464 329.224C263.328 329.224 264.224 328.952 264.704 328.552L265.344 327.64V329H266.72V317.24ZM262.672 328.168C260.976 328.168 260.112 326.648 260.112 324.728C260.112 322.504 261.264 321.352 262.752 321.352C263.968 321.352 265.344 322.184 265.344 324.376V324.84C265.344 327.272 264.08 328.168 262.672 328.168ZM276.316 324.52C276.316 322.04 275.02 320.296 272.684 320.296C270.364 320.296 268.652 322.04 268.652 324.792C268.652 327.784 270.3 329.224 272.508 329.224C274.252 329.224 275.868 328.312 276.204 326.264H274.764C274.572 327.48 273.676 328.168 272.572 328.168C271.324 328.168 270.268 327.416 270.14 325.176H276.284C276.316 324.872 276.316 324.648 276.316 324.52ZM272.652 321.352C274.044 321.352 274.796 322.36 274.924 324.12H270.156C270.316 322.312 271.308 321.352 272.652 321.352ZM283.201 329H284.577C284.449 328.056 284.417 327.48 284.417 326.84V323.656C284.417 323.288 284.401 322.872 284.369 322.536C284.225 321.144 283.377 320.296 281.361 320.296C279.489 320.296 278.225 321.336 278.097 323.144H279.537C279.633 321.976 280.209 321.352 281.361 321.352C282.497 321.352 282.945 321.864 283.009 322.648C283.041 322.968 283.041 323.304 283.041 323.672V323.896H282.497C279.169 323.896 277.729 324.888 277.729 326.808C277.729 328.376 278.929 329.224 280.465 329.224C281.281 329.224 282.017 329.096 282.593 328.696L283.057 327.784L283.201 329ZM280.929 328.168C279.889 328.168 279.233 327.72 279.233 326.696C279.233 325.24 280.705 324.744 283.041 324.92V325.784C283.041 327.32 282.209 328.168 280.929 328.168ZM289.501 320.296C287.757 320.296 286.573 321.224 286.573 322.776C286.573 324.264 287.789 324.888 289.309 325.304C290.733 325.688 291.309 326.12 291.309 326.936C291.309 327.752 290.573 328.168 289.661 328.168C288.685 328.168 287.901 327.736 287.677 326.504H286.237C286.493 328.424 287.821 329.224 289.565 329.224C291.357 329.224 292.717 328.424 292.717 326.824C292.717 325.384 291.789 324.616 289.837 324.104C288.685 323.8 287.981 323.464 287.981 322.616C287.981 321.88 288.429 321.352 289.389 321.352C290.381 321.352 290.989 321.944 291.181 322.936H292.621C292.445 321.384 291.405 320.296 289.501 320.296ZM298.922 317.736C298.426 317.736 298.042 318.12 298.042 318.616C298.042 319.112 298.426 319.496 298.922 319.496C299.418 319.496 299.802 319.112 299.802 318.616C299.802 318.12 299.418 317.736 298.922 317.736ZM299.61 329V320.52H298.234V329H299.61ZM309.383 322.776C309.255 321.288 308.215 320.296 306.359 320.296C305.495 320.296 304.871 320.44 304.151 321L303.623 321.976V320.52H302.247V329H303.623V325.272C303.623 322.376 304.743 321.384 306.071 321.384C307.383 321.384 307.927 322.12 308.007 323.112C308.039 323.544 308.039 323.896 308.039 324.328V329H309.415V324.232C309.415 323.544 309.415 323.208 309.383 322.776ZM313.579 321.64H315.163V320.584H313.579V318.616H312.203V320.584H311.067V321.64H312.203V326.584C312.203 327.064 312.203 327.416 312.219 327.64C312.299 328.696 312.843 329.128 313.899 329.128C314.283 329.128 314.667 329.112 315.067 329.048V328.04C313.995 328.168 313.659 327.992 313.595 327.176C313.579 326.952 313.579 326.808 313.579 326.52V321.64ZM320.447 320.296C317.567 320.296 316.239 322.36 316.239 324.76C316.239 327.144 317.567 329.224 320.447 329.224C323.327 329.224 324.655 327.144 324.655 324.76C324.655 322.36 323.327 320.296 320.447 320.296ZM320.447 328.168C318.735 328.168 317.743 326.744 317.743 324.76C317.743 322.76 318.735 321.352 320.447 321.352C322.159 321.352 323.151 322.76 323.151 324.76C323.151 326.744 322.159 328.168 320.447 328.168ZM334.427 320.296C333.563 320.296 332.667 320.568 332.187 320.968L331.547 321.88V320.52H330.171V332.136H331.547V327.832L332.107 328.664C332.539 329.016 333.435 329.224 334.139 329.224C336.331 329.224 338.283 327.768 338.283 324.632C338.283 322.152 336.907 320.296 334.427 320.296ZM334.139 328.168C332.923 328.168 331.547 327.336 331.547 325.144V324.68C331.547 322.248 332.811 321.352 334.219 321.352C335.915 321.352 336.779 322.872 336.779 324.792C336.779 327.016 335.627 328.168 334.139 328.168ZM343.481 320.328C343.081 320.328 342.649 320.472 342.297 320.712L341.529 321.848V320.52H340.153V329H341.529V324.168C341.529 322.232 342.617 321.384 344.057 321.48V320.44C343.897 320.36 343.705 320.328 343.481 320.328ZM348.951 320.296C346.071 320.296 344.743 322.36 344.743 324.76C344.743 327.144 346.071 329.224 348.951 329.224C351.831 329.224 353.159 327.144 353.159 324.76C353.159 322.36 351.831 320.296 348.951 320.296ZM348.951 328.168C347.239 328.168 346.247 326.744 346.247 324.76C346.247 322.76 347.239 321.352 348.951 321.352C350.663 321.352 351.655 322.76 351.655 324.76C351.655 326.744 350.663 328.168 348.951 328.168ZM362.429 317.24H361.053V321.688L360.493 320.856C360.061 320.504 359.165 320.296 358.461 320.296C356.269 320.296 354.317 321.752 354.317 324.888C354.317 327.368 355.693 329.224 358.173 329.224C359.037 329.224 359.933 328.952 360.413 328.552L361.053 327.64V329H362.429V317.24ZM358.381 328.168C356.685 328.168 355.821 326.648 355.821 324.728C355.821 322.504 356.973 321.352 358.461 321.352C359.677 321.352 361.053 322.184 361.053 324.376V324.84C361.053 327.272 359.789 328.168 358.381 328.168ZM372.105 320.52H370.729V324.248C370.729 327.144 369.673 328.136 368.345 328.136C367.193 328.136 366.505 327.48 366.377 326.52C366.329 326.088 366.313 325.624 366.313 325.352V320.52H364.937V325.608C364.937 326.296 364.953 326.632 365.017 327.064C365.209 328.232 366.233 329.224 367.993 329.224C368.857 329.224 369.481 329.08 370.201 328.552L370.729 327.56V329H372.105V320.52ZM378.014 320.296C375.886 320.296 374.03 321.912 374.03 324.776C374.03 327.88 375.662 329.224 377.806 329.224C379.694 329.224 381.102 328.264 381.518 326.296H380.078C379.79 327.528 379.006 328.168 377.886 328.168C376.622 328.168 375.534 327.144 375.534 324.68C375.534 322.392 376.654 321.352 377.982 321.352C379.118 321.352 379.854 322.008 380.158 323.368H381.598C381.342 321.512 380.046 320.296 378.014 320.296ZM385.051 321.64H386.635V320.584H385.051V318.616H383.675V320.584H382.539V321.64H383.675V326.584C383.675 327.064 383.675 327.416 383.691 327.64C383.771 328.696 384.315 329.128 385.371 329.128C385.755 329.128 386.139 329.112 386.539 329.048V328.04C385.467 328.168 385.131 327.992 385.067 327.176C385.051 326.952 385.051 326.808 385.051 326.52V321.64ZM391.082 320.296C389.338 320.296 388.154 321.224 388.154 322.776C388.154 324.264 389.37 324.888 390.89 325.304C392.314 325.688 392.89 326.12 392.89 326.936C392.89 327.752 392.154 328.168 391.242 328.168C390.266 328.168 389.482 327.736 389.258 326.504H387.818C388.074 328.424 389.402 329.224 391.146 329.224C392.938 329.224 394.298 328.424 394.298 326.824C394.298 325.384 393.37 324.616 391.418 324.104C390.266 323.8 389.562 323.464 389.562 322.616C389.562 321.88 390.01 321.352 390.97 321.352C391.962 321.352 392.57 321.944 392.762 322.936H394.202C394.026 321.384 392.986 320.296 391.082 320.296ZM396.594 327.176C396.002 327.176 395.57 327.608 395.57 328.2C395.57 328.792 396.002 329.224 396.594 329.224C397.186 329.224 397.618 328.792 397.618 328.2C397.618 327.608 397.186 327.176 396.594 327.176Z" fill="white" fill-opacity="0.34"/>
<rect y="287" width="3" height="48" fill="#A97BED"/>
<path opacity="0.4" d="M375.72 270V200.88H404.904C405.576 200.88 406.472 200.912 407.592 200.976C408.744 201.008 409.768 201.104 410.664 201.264C414.792 201.904 418.168 203.264 420.792 205.344C423.448 207.424 425.4 210.048 426.648 213.216C427.896 216.352 428.52 219.856 428.52 223.728C428.52 229.52 427.08 234.48 424.2 238.608C421.32 242.704 416.808 245.232 410.664 246.192L404.904 246.576H388.776V270H375.72ZM414.696 270L401.064 241.872L414.504 239.28L429.48 270H414.696ZM388.776 234.384H404.328C405 234.384 405.736 234.352 406.536 234.288C407.336 234.224 408.072 234.096 408.744 233.904C410.504 233.424 411.864 232.624 412.824 231.504C413.784 230.352 414.44 229.088 414.792 227.712C415.176 226.304 415.368 224.976 415.368 223.728C415.368 222.48 415.176 221.168 414.792 219.792C414.44 218.384 413.784 217.12 412.824 216C411.864 214.848 410.504 214.032 408.744 213.552C408.072 213.36 407.336 213.232 406.536 213.168C405.736 213.104 405 213.072 404.328 213.072H388.776V234.384ZM435.432 270L456.552 200.88H476.04L497.161 270H483.72L464.904 209.04H467.4L448.872 270H435.432ZM448.104 255.6V243.408H484.584V255.6H448.104ZM506.924 270V200.88H519.98V270H506.924ZM560.682 271.44C555.562 271.44 550.938 270.544 546.81 268.752C542.714 266.928 539.338 264.336 536.682 260.976C534.058 257.584 532.394 253.552 531.69 248.88L545.322 246.864C546.282 250.832 548.266 253.888 551.274 256.032C554.282 258.176 557.706 259.248 561.546 259.248C563.69 259.248 565.77 258.912 567.786 258.24C569.802 257.568 571.45 256.576 572.73 255.264C574.042 253.952 574.698 252.336 574.698 250.416C574.698 249.712 574.586 249.04 574.362 248.4C574.17 247.728 573.834 247.104 573.354 246.528C572.874 245.952 572.186 245.408 571.29 244.896C570.426 244.384 569.322 243.92 567.978 243.504L550.026 238.224C548.682 237.84 547.114 237.296 545.322 236.592C543.562 235.888 541.85 234.88 540.186 233.568C538.522 232.256 537.13 230.528 536.01 228.384C534.922 226.208 534.378 223.472 534.378 220.176C534.378 215.536 535.546 211.68 537.882 208.608C540.218 205.536 543.338 203.248 547.242 201.744C551.146 200.24 555.466 199.504 560.202 199.536C564.97 199.6 569.226 200.416 572.97 201.984C576.714 203.552 579.85 205.84 582.378 208.848C584.906 211.824 586.73 215.472 587.85 219.792L573.738 222.192C573.226 219.952 572.282 218.064 570.906 216.528C569.53 214.992 567.882 213.824 565.962 213.024C564.074 212.224 562.09 211.792 560.01 211.728C557.962 211.664 556.026 211.952 554.202 212.592C552.41 213.2 550.938 214.096 549.786 215.28C548.666 216.464 548.106 217.872 548.106 219.504C548.106 221.008 548.57 222.24 549.498 223.2C550.426 224.128 551.594 224.88 553.002 225.456C554.41 226.032 555.85 226.512 557.322 226.896L569.322 230.16C571.114 230.64 573.098 231.28 575.274 232.08C577.45 232.848 579.53 233.936 581.514 235.344C583.53 236.72 585.178 238.544 586.458 240.816C587.77 243.088 588.426 245.968 588.426 249.456C588.426 253.168 587.642 256.416 586.074 259.2C584.538 261.952 582.458 264.24 579.834 266.064C577.21 267.856 574.234 269.2 570.906 270.096C567.61 270.992 564.202 271.44 560.682 271.44ZM599.176 270V200.88H644.296V213.072H612.232V227.856H638.536V240.048H612.232V257.808H644.296V270H599.176Z" fill="url(#paint0_linear_263_2794)" fill-opacity="0.2"/>
<path opacity="0.4" d="M233.68 109V39.88H246.736V109H233.68ZM261.326 109V39.88H274.574L304.622 85.96V39.88H317.87V109H304.622L274.574 62.92V109H261.326ZM357.576 110.44C352.456 110.44 347.832 109.544 343.704 107.752C339.608 105.928 336.232 103.336 333.576 99.976C330.952 96.584 329.288 92.552 328.584 87.88L342.216 85.864C343.176 89.832 345.16 92.888 348.168 95.032C351.176 97.176 354.6 98.248 358.44 98.248C360.584 98.248 362.664 97.912 364.68 97.24C366.696 96.568 368.344 95.576 369.624 94.264C370.936 92.952 371.592 91.336 371.592 89.416C371.592 88.712 371.48 88.04 371.256 87.4C371.064 86.728 370.728 86.104 370.248 85.528C369.768 84.952 369.08 84.408 368.184 83.896C367.32 83.384 366.216 82.92 364.872 82.504L346.92 77.224C345.576 76.84 344.008 76.296 342.216 75.592C340.456 74.888 338.744 73.88 337.08 72.568C335.416 71.256 334.024 69.528 332.904 67.384C331.816 65.208 331.272 62.472 331.272 59.176C331.272 54.536 332.44 50.68 334.776 47.608C337.112 44.536 340.232 42.248 344.136 40.744C348.04 39.24 352.36 38.504 357.096 38.536C361.864 38.6 366.12 39.416 369.864 40.984C373.608 42.552 376.744 44.84 379.272 47.848C381.8 50.824 383.624 54.472 384.744 58.792L370.632 61.192C370.12 58.952 369.176 57.064 367.8 55.528C366.424 53.992 364.776 52.824 362.856 52.024C360.968 51.224 358.984 50.792 356.904 50.728C354.856 50.664 352.92 50.952 351.096 51.592C349.304 52.2 347.832 53.096 346.68 54.28C345.56 55.464 345 56.872 345 58.504C345 60.008 345.464 61.24 346.392 62.2C347.32 63.128 348.488 63.88 349.896 64.456C351.304 65.032 352.744 65.512 354.216 65.896L366.216 69.16C368.008 69.64 369.992 70.28 372.168 71.08C374.344 71.848 376.424 72.936 378.408 74.344C380.424 75.72 382.072 77.544 383.352 79.816C384.664 82.088 385.32 84.968 385.32 88.456C385.32 92.168 384.536 95.416 382.968 98.2C381.432 100.952 379.352 103.24 376.728 105.064C374.104 106.856 371.128 108.2 367.8 109.096C364.504 109.992 361.096 110.44 357.576 110.44ZM412.102 109V52.072H390.31V39.88H446.95V52.072H425.158V109H412.102ZM448.189 109L469.309 39.88H488.797L509.917 109H496.477L477.661 48.04H480.157L461.629 109H448.189ZM460.861 94.6V82.408H497.341V94.6H460.861Z" fill="url(#paint1_linear_263_2794)" fill-opacity="0.2"/>
<defs>
<linearGradient id="paint0_linear_263_2794" x1="629.367" y1="195" x2="291.517" y2="314.209" gradientUnits="userSpaceOnUse">
<stop stop-color="#D0D0E7"/>
<stop offset="1" stop-color="#DAD0E3" stop-opacity="0"/>
</linearGradient>
<linearGradient id="paint1_linear_263_2794" x1="491" y1="34" x2="148.5" y2="157" gradientUnits="userSpaceOnUse">
<stop stop-color="#D0D0E7"/>
<stop offset="1" stop-color="#DAD0E3" stop-opacity="0"/>
</linearGradient>
</defs>
</svg>
