<svg width="24" height="24" viewBox="0 0 24 24" fill="none" xmlns="http://www.w3.org/2000/svg">
<rect width="24" height="24" rx="4" fill="#130F1F"/>
<g clip-path="url(#clip0_601_532)">
<path d="M19.375 13.0881C19.375 14.9944 18.6177 16.8226 17.2698 18.1705C15.9219 19.5184 14.0937 20.2756 12.1875 20.2756C10.2813 20.2756 8.45309 19.5184 7.10517 18.1705C5.75725 16.8226 5 14.9944 5 13.0881C5 11.2846 5.77198 9.20639 7.2945 6.91123C7.33993 6.84273 7.39843 6.78386 7.46665 6.738C7.53486 6.69214 7.61145 6.66019 7.69204 6.64398C7.77262 6.62776 7.85561 6.6276 7.93625 6.64351C8.0169 6.65941 8.09361 6.69107 8.162 6.73667L10.6836 8.41773L13.0938 3.35632C13.1367 3.26602 13.2008 3.18736 13.2805 3.12694C13.3601 3.06652 13.4532 3.02611 13.5517 3.0091C13.6503 2.9921 13.7515 2.99899 13.8468 3.02921C13.9421 3.05942 14.0288 3.11208 14.0996 3.18275C15.2514 4.33258 16.5667 5.72746 17.5881 7.35412C18.7905 9.26895 19.375 11.1446 19.375 13.0881Z" fill="#8040C0"/>
</g>
<defs>
<clipPath id="clip0_601_532">
<rect width="20" height="20" fill="white" transform="translate(2 2)"/>
</clipPath>
</defs>
</svg>
