

<svg width="32" height="32" viewBox="0 0 32 32" fill="none" xmlns="http://www.w3.org/2000/svg">
<path d="M22.6663 10.6666V6.66659C22.6663 6.31296 22.5259 5.97382 22.2758 5.72378C22.0258 5.47373 21.6866 5.33325 21.333 5.33325H7.99967C7.29243 5.33325 6.61415 5.6142 6.11406 6.1143C5.61396 6.6144 5.33301 7.29267 5.33301 7.99992M5.33301 7.99992C5.33301 8.70716 5.61396 9.38544 6.11406 9.88554C6.61415 10.3856 7.29243 10.6666 7.99967 10.6666H23.9997C24.3533 10.6666 24.6924 10.8071 24.9425 11.0571C25.1925 11.3072 25.333 11.6463 25.333 11.9999V15.9999M5.33301 7.99992V23.9999C5.33301 24.7072 5.61396 25.3854 6.11406 25.8855C6.61415 26.3856 7.29243 26.6666 7.99967 26.6666H23.9997C24.3533 26.6666 24.6924 26.5261 24.9425 26.2761C25.1925 26.026 25.333 25.6869 25.333 25.3333V21.3333" stroke="#4e5d78" stroke-width="1.5" stroke-linecap="round" stroke-linejoin="round"/>
<path d="M26.667 16V21.3333H21.3337C20.6264 21.3333 19.9481 21.0524 19.448 20.5523C18.9479 20.0522 18.667 19.3739 18.667 18.6667C18.667 17.9594 18.9479 17.2811 19.448 16.781C19.9481 16.281 20.6264 16 21.3337 16H26.667Z" stroke="#4e5d78" stroke-width="1.5" stroke-linecap="round" stroke-linejoin="round"/>
</svg>
