<svg width="16" height="17" viewBox="0 0 16 17" fill="none" xmlns="http://www.w3.org/2000/svg">
<path d="M9.5 0V4.8C9.5 5.22435 9.67121 5.63131 9.97595 5.93137C10.2807 6.23143 10.694 6.4 11.125 6.4H16V14.4C16 14.8243 15.8288 15.2313 15.524 15.5314C15.2193 15.8314 14.806 16 14.375 16H8.84187C9.68283 15.1381 10.1965 14.0172 10.2966 12.8261C10.3966 11.6349 10.0768 10.4462 9.39109 9.45998C8.70534 8.47375 7.69547 7.75023 6.53145 7.41118C5.36743 7.07213 4.12032 7.13824 3 7.5984V1.6C3 1.17565 3.1712 0.768687 3.47595 0.468629C3.7807 0.168571 4.19402 0 4.625 0H9.5Z" fill="#4E5D78"/>
<path d="M10.8108 0V4.56098C10.8108 4.67094 10.8564 4.77641 10.9375 4.85417C11.0186 4.93193 11.1286 4.97561 11.2432 4.97561H16L10.8108 0ZM9.51351 12.439C9.51351 13.038 9.39048 13.6311 9.15143 14.1844C8.91238 14.7378 8.562 15.2406 8.12029 15.6641C7.67859 16.0876 7.15421 16.4236 6.57709 16.6528C5.99997 16.882 5.38142 17 4.75676 17C4.13209 17 3.51354 16.882 2.93642 16.6528C2.35931 16.4236 1.83493 16.0876 1.39322 15.6641C0.951516 15.2406 0.601136 14.7378 0.362087 14.1844C0.123037 13.6311 -9.30825e-09 13.038 0 12.439C1.87989e-08 11.2294 0.501157 10.0693 1.39322 9.21393C2.28529 8.35858 3.49519 7.87805 4.75676 7.87805C6.01833 7.87805 7.22823 8.35858 8.12029 9.21393C9.01236 10.0693 9.51351 11.2294 9.51351 12.439ZM2.16216 12.0244C2.04747 12.0244 1.93748 12.0681 1.85639 12.1458C1.77529 12.2236 1.72973 12.3291 1.72973 12.439C1.72973 12.549 1.77529 12.6545 1.85639 12.7322C1.93748 12.81 2.04747 12.8537 2.16216 12.8537H6.30746L4.88303 14.2186C4.80183 14.2965 4.75621 14.4021 4.75621 14.5122C4.75621 14.6223 4.80183 14.7279 4.88303 14.8058C4.96423 14.8836 5.07436 14.9274 5.18919 14.9274C5.30402 14.9274 5.41415 14.8836 5.49535 14.8058L7.65751 12.7326C7.69778 12.6941 7.72973 12.6483 7.75153 12.5979C7.77333 12.5476 7.78456 12.4936 7.78456 12.439C7.78456 12.3845 7.77333 12.3305 7.75153 12.2801C7.72973 12.2297 7.69778 12.184 7.65751 12.1455L5.49535 10.0723C5.41415 9.99444 5.30402 9.9507 5.18919 9.9507C5.07436 9.9507 4.96423 9.99444 4.88303 10.0723C4.80183 10.1501 4.75621 10.2557 4.75621 10.3659C4.75621 10.476 4.80183 10.5816 4.88303 10.6594L6.30746 12.0244H2.16216Z" fill="#4E5D78"/>
</svg>
