
<svg width="22" height="24" viewBox="0 0 22 24" fill="none" xmlns="http://www.w3.org/2000/svg">
<path d="M2.29883 9.60005V7.50005C2.29883 6.38614 2.74133 5.31785 3.52898 4.5302C4.31663 3.74255 5.38492 3.30005 6.49883 3.30005H8.59883" stroke="white" stroke-width="1.5" stroke-linecap="round" stroke-linejoin="round"/>
<path d="M6.79883 1.5L8.59883 3.3L6.79883 5.1" stroke="white" stroke-width="1.5" stroke-linecap="round" stroke-linejoin="round"/>
<path d="M19.6984 14.3999V16.4999C19.6984 17.6138 19.2559 18.6821 18.4683 19.4698C17.6806 20.2574 16.6123 20.6999 15.4984 20.6999H13.3984" stroke="white" stroke-width="1.5" stroke-linecap="round" stroke-linejoin="round"/>
<path d="M15.1984 22.4999L13.3984 20.6999L15.1984 18.8999" stroke="white" stroke-width="1.5" stroke-linecap="round" stroke-linejoin="round"/>
<path d="M8.41406 7.53377C8.62496 6.46732 9.12163 5.47821 9.851 4.67211C10.5804 3.86602 11.5151 3.27323 12.5552 2.95708C13.5953 2.64094 14.7017 2.61331 15.7563 2.87716C16.8109 3.14101 17.774 3.68642 18.5427 4.45511C19.3114 5.22381 19.8568 6.1869 20.1207 7.24149C20.3845 8.29608 20.3569 9.40255 20.0407 10.4427C19.7246 11.4828 19.1318 12.4174 18.3257 13.1468C17.5196 13.8762 16.5305 14.3729 15.4641 14.5838" stroke="white" stroke-width="1.5" stroke-linecap="round" stroke-linejoin="round"/>
<path d="M7.69922 21.3C11.0129 21.3 13.6992 18.6138 13.6992 15.3C13.6992 11.9863 11.0129 9.30005 7.69922 9.30005C4.38551 9.30005 1.69922 11.9863 1.69922 15.3C1.69922 18.6138 4.38551 21.3 7.69922 21.3Z" stroke="white" stroke-width="1.5" stroke-linecap="round" stroke-linejoin="round"/>
<path d="M11.4901 12.0023L5.32662 14.9606C5.31638 14.9657 5.30494 14.9679 5.29353 14.9669C5.28213 14.966 5.2712 14.9619 5.26193 14.9552C5.25266 14.9485 5.2454 14.9394 5.24094 14.9289C5.23648 14.9183 5.23498 14.9068 5.23662 14.8955C5.29159 14.5569 5.41571 14.2333 5.60125 13.9448C5.78678 13.6563 6.02975 13.4091 6.31501 13.2186C6.60028 13.0282 6.92171 12.8985 7.25929 12.8377C7.59686 12.7769 7.94334 12.7863 8.27712 12.8654C8.41139 12.8944 8.55155 12.8766 8.67432 12.815L9.51102 12.4133C9.53088 12.4038 9.54783 12.3892 9.56009 12.3709C9.57236 12.3527 9.5795 12.3315 9.58075 12.3095C9.58201 12.2875 9.57734 12.2656 9.56724 12.2461C9.55714 12.2266 9.54197 12.2101 9.52332 12.1985C8.97714 11.8766 8.35554 11.705 7.7216 11.701C7.08766 11.697 6.46395 11.8608 5.91377 12.1758C5.36359 12.4907 4.90653 12.9456 4.58897 13.4943C4.2714 14.043 4.10465 14.6659 4.10562 15.2999C4.10562 15.3533 4.10892 15.407 4.11162 15.4604H4.10982C4.11123 15.4846 4.1054 15.5087 4.09305 15.5296C4.08071 15.5505 4.06242 15.5672 4.04052 15.5777L3.90552 15.6425C3.85368 15.6673 3.80992 15.7064 3.77929 15.755C3.74866 15.8037 3.73242 15.86 3.73242 15.9176V16.7501C3.73242 16.7707 3.73765 16.791 3.74763 16.8091C3.75761 16.8271 3.772 16.8424 3.78947 16.8534C3.80694 16.8644 3.82692 16.8708 3.84753 16.872C3.86814 16.8731 3.88871 16.8691 3.90732 16.8602L11.4919 13.2194C11.5438 13.1945 11.5875 13.1554 11.6182 13.1068C11.6488 13.0581 11.665 13.0018 11.665 12.9443V12.1124C11.665 12.0917 11.6598 12.0714 11.6498 12.0533C11.6398 12.0353 11.6254 12.02 11.608 12.009C11.5905 11.998 11.5705 11.9916 11.5499 11.9904C11.5293 11.9893 11.5087 11.9933 11.4901 12.0023Z" fill="white"/>
<path d="M3.90732 18.5977L10.0708 15.6394C10.0811 15.6343 10.0925 15.6321 10.1039 15.633C10.1153 15.634 10.1262 15.638 10.1355 15.6447C10.1448 15.6514 10.152 15.6605 10.1565 15.6711C10.161 15.6816 10.1625 15.6932 10.1608 15.7045C10.1059 16.0431 9.98173 16.3667 9.7962 16.6552C9.61066 16.9437 9.36769 17.1908 9.08243 17.3813C8.79717 17.5718 8.47573 17.7014 8.13815 17.7622C7.80058 17.823 7.4541 17.8136 7.12032 17.7346C6.98605 17.7056 6.8459 17.7234 6.72312 17.785L5.88642 18.1867C5.86657 18.1961 5.84962 18.2108 5.83735 18.229C5.82508 18.2473 5.81795 18.2685 5.81669 18.2904C5.81543 18.3124 5.8201 18.3343 5.8302 18.3538C5.84031 18.3734 5.85548 18.3898 5.87412 18.4015C6.4203 18.7233 7.0419 18.895 7.67584 18.8989C8.30978 18.9029 8.93349 18.7391 9.48367 18.4242C10.0338 18.1092 10.4909 17.6543 10.8085 17.1056C11.126 16.557 11.2928 15.934 11.2918 15.3001C11.2918 15.2467 11.2885 15.193 11.2858 15.1396H11.2876C11.2862 15.1154 11.292 15.0913 11.3044 15.0704C11.3167 15.0495 11.335 15.0327 11.3569 15.0223L11.4919 14.9575C11.5438 14.9326 11.5875 14.8936 11.6182 14.8449C11.6488 14.7962 11.665 14.7399 11.665 14.6824V13.8499C11.665 13.8292 11.6598 13.8089 11.6498 13.7909C11.6398 13.7728 11.6254 13.7575 11.608 13.7466C11.5905 13.7356 11.5705 13.7292 11.5499 13.728C11.5293 13.7268 11.5087 13.7309 11.4901 13.7398L3.90552 17.3806C3.85368 17.4055 3.80992 17.4445 3.77929 17.4932C3.74866 17.5418 3.73242 17.5982 3.73242 17.6557V18.4879C3.73247 18.5085 3.73774 18.5288 3.74774 18.5468C3.75774 18.5648 3.77214 18.58 3.7896 18.591C3.80706 18.602 3.82702 18.6083 3.8476 18.6095C3.86819 18.6107 3.88873 18.6066 3.90732 18.5977Z" fill="white"/>
</svg>
