<svg width="26" height="26" viewBox="0 0 26 26" fill="none" xmlns="http://www.w3.org/2000/svg">
<path d="M9 9L2.33333 13.4444L5 15.2222L11.6667 10.7778V9.88889L13 9L14.3333 9.88889V10.7778L21 15.2222L23.6667 13.4444L17 9H15.6667L14.3333 8.11111L15.6667 7.22222H17L23.6667 2.77778L21 1L14.3333 5.44444V6.33333L13 7.22222L11.6667 6.33333V5.44444L5 1L2.33333 2.77778L9 7.22222H10.3333L11.6667 8.11111L10.3333 9H9ZM23.6667 23.2222H21L18.3333 16.1111L13 12.5556L7.66667 16.1111L5 23.2222H2.33333C1.97971 23.2222 1.64057 23.3159 1.39052 23.4826C1.14048 23.6493 1 23.8754 1 24.1111C1 24.3469 1.14048 24.573 1.39052 24.7397C1.64057 24.9063 1.97971 25 2.33333 25H23.6667C24.0203 25 24.3594 24.9063 24.6095 24.7397C24.8595 24.573 25 24.3469 25 24.1111C25 23.8754 24.8595 23.6493 24.6095 23.4826C24.3594 23.3159 24.0203 23.2222 23.6667 23.2222ZM14.3333 23.2222H11.6667V20.552C11.6667 20.0631 12.2613 19.6667 12.9947 19.6667C13.7333 19.6667 14.3333 20.0667 14.3333 20.5591V23.2222Z" stroke="white" stroke-width="1.5"/>
</svg>
