<svg width="34" height="44" viewBox="0 0 34 44" fill="none" xmlns="http://www.w3.org/2000/svg">
<g filter="url(#filter0_bd_128_1120)">
<path d="M14.8299 23.5901C16.2414 24.6143 17.1913 26.1544 17.4731 27.8753C17.4807 27.9505 17.5139 28.0208 17.5671 28.0743C17.6204 28.1279 17.6904 28.1616 17.7655 28.1696C17.8131 28.1741 17.8611 28.1682 17.9062 28.1522C17.9513 28.1363 17.9924 28.1107 18.0266 28.0773C18.0659 28.0386 18.0949 27.9907 18.1108 27.9379C18.8495 25.5141 20.064 19.8277 16.3569 17.0175L14.8299 23.5901Z" fill="url(#paint0_linear_128_1120)"/>
<path d="M17.5726 27.8653L17.5728 27.8653L17.5718 27.8592C17.2894 26.1341 16.3455 24.588 14.9423 23.5484L16.4189 17.1925C18.1444 18.572 18.7357 20.6128 18.8011 22.6259C18.868 24.6859 18.3831 26.7014 18.0152 27.9087L18.0151 27.9089C18.004 27.9457 17.9838 27.9791 17.9564 28.006L18.0266 28.0773L17.9567 28.0058C17.9329 28.0291 17.9043 28.0469 17.8729 28.058L17.9062 28.1522L17.8729 28.058C17.8417 28.069 17.8085 28.0731 17.7756 28.0701C17.7235 28.0644 17.675 28.041 17.6381 28.0038C17.601 27.9665 17.5779 27.9176 17.5726 27.8653Z" stroke="url(#paint1_linear_128_1120)" stroke-width="0.2"/>
</g>
<g filter="url(#filter1_bd_128_1120)">
<path d="M9.53199 23.5795C8.11733 24.5992 7.16258 26.1363 6.87547 27.8564C6.86764 27.9316 6.83421 28.0017 6.7808 28.0551C6.72739 28.1085 6.65724 28.142 6.58211 28.1498C6.53449 28.1541 6.48649 28.1481 6.44146 28.132C6.39643 28.1159 6.35544 28.0902 6.32135 28.0567C6.28215 28.0179 6.25333 27.9698 6.23753 27.917C5.50646 25.4909 4.30975 19.8007 8.02562 17.0022L9.53199 23.5795Z" fill="url(#paint2_linear_128_1120)"/>
<path d="M6.77601 27.8461L6.77582 27.8461L6.77683 27.84C7.06464 26.1157 8.0133 24.5726 9.41979 23.5375L7.96306 17.177C6.23326 18.5511 5.63559 20.59 5.56391 22.6028C5.49055 24.6627 5.96912 26.6797 6.33328 27.8881L6.33334 27.8883C6.34434 27.9251 6.36441 27.9586 6.3917 27.9856L6.32135 28.0567L6.39146 27.9854C6.4152 28.0087 6.44374 28.0266 6.47509 28.0378L6.44146 28.132L6.4751 28.0378C6.50624 28.0489 6.53942 28.0532 6.57237 28.0503C6.62444 28.0447 6.67305 28.0215 6.71009 27.9844C6.74728 27.9472 6.77055 27.8984 6.77601 27.8461Z" stroke="url(#paint3_linear_128_1120)" stroke-width="0.2"/>
</g>
<g filter="url(#filter2_bd_128_1120)">
<mask id="path-5-inside-1_128_1120" fill="white">
<path fill-rule="evenodd" clip-rule="evenodd" d="M11.9998 5.20849C12.0719 5.20849 12.1421 5.23126 12.2004 5.27356C13.4752 6.34947 14.5575 7.6345 15.401 9.0736L8.62523 9.03734C9.46166 7.61151 10.535 6.33869 11.7992 5.27356C11.8575 5.23126 11.9277 5.20849 11.9998 5.20849ZM6.89252 17.2896L8.84571 25.7696C8.86294 25.8451 8.90533 25.9126 8.96594 25.9609C9.02656 26.0093 9.10179 26.0355 9.1793 26.0355L14.8165 26.0355C14.8617 26.0359 14.9066 26.0274 14.9485 26.0104C14.9904 25.9934 15.0285 25.9682 15.0607 25.9364C15.1065 25.891 15.1377 25.8329 15.1501 25.7696L17.1057 17.2582C17.4764 14.6782 17.0149 12.0473 15.7883 9.74754L8.23896 9.71611C6.99362 12.0323 6.52181 14.6861 6.89252 17.2896Z"/>
</mask>
<path fill-rule="evenodd" clip-rule="evenodd" d="M11.9998 5.20849C12.0719 5.20849 12.1421 5.23126 12.2004 5.27356C13.4752 6.34947 14.5575 7.6345 15.401 9.0736L8.62523 9.03734C9.46166 7.61151 10.535 6.33869 11.7992 5.27356C11.8575 5.23126 11.9277 5.20849 11.9998 5.20849ZM6.89252 17.2896L8.84571 25.7696C8.86294 25.8451 8.90533 25.9126 8.96594 25.9609C9.02656 26.0093 9.10179 26.0355 9.1793 26.0355L14.8165 26.0355C14.8617 26.0359 14.9066 26.0274 14.9485 26.0104C14.9904 25.9934 15.0285 25.9682 15.0607 25.9364C15.1065 25.891 15.1377 25.8329 15.1501 25.7696L17.1057 17.2582C17.4764 14.6782 17.0149 12.0473 15.7883 9.74754L8.23896 9.71611C6.99362 12.0323 6.52181 14.6861 6.89252 17.2896Z" fill="url(#paint4_linear_128_1120)"/>
<path d="M12.2004 5.27356L12.3294 5.12072L12.3238 5.11596L12.3178 5.11163L12.2004 5.27356ZM11.9998 5.20849L11.9998 5.00849L11.9998 5.00849L11.9998 5.20849ZM15.401 9.0736L15.3999 9.27359L15.7511 9.27547L15.5735 8.97246L15.401 9.0736ZM8.62523 9.03734L8.45272 8.93614L8.27712 9.23547L8.62416 9.23733L8.62523 9.03734ZM11.7992 5.27356L11.6818 5.11163L11.6759 5.11591L11.6703 5.12061L11.7992 5.27356ZM8.84571 25.7696L9.04072 25.7251L9.04061 25.7247L8.84571 25.7696ZM6.89252 17.2896L6.69451 17.3178L6.69571 17.3262L6.69762 17.3345L6.89252 17.2896ZM8.96594 25.9609L8.84128 26.1173L8.84128 26.1173L8.96594 25.9609ZM9.1793 26.0355L9.1793 25.8355L9.17914 25.8355L9.1793 26.0355ZM14.8165 26.0355L14.8185 25.8355L14.8165 25.8355L14.8165 26.0355ZM15.0607 25.9364L14.92 25.7941L14.9198 25.7944L15.0607 25.9364ZM15.1501 25.7696L14.9551 25.7248L14.9538 25.7311L15.1501 25.7696ZM17.1057 17.2582L17.3006 17.303L17.3025 17.2948L17.3037 17.2866L17.1057 17.2582ZM15.7883 9.74754L15.9647 9.65342L15.9085 9.54804L15.7891 9.54754L15.7883 9.74754ZM8.23896 9.71611L8.2398 9.51612L8.11969 9.51562L8.06281 9.6214L8.23896 9.71611ZM12.3178 5.11163C12.2253 5.04459 12.114 5.00849 11.9998 5.00849L11.9998 5.40849C12.0297 5.40849 12.0589 5.41794 12.0831 5.43549L12.3178 5.11163ZM15.5735 8.97246C14.7185 7.51379 13.6215 6.21128 12.3294 5.12072L12.0714 5.4264C13.3288 6.48767 14.3964 7.75522 15.2284 9.17473L15.5735 8.97246ZM8.62416 9.23733L15.3999 9.27359L15.4021 8.8736L8.6263 8.83734L8.62416 9.23733ZM11.6703 5.12061C10.3888 6.20039 9.30065 7.49071 8.45272 8.93614L8.79773 9.13853C9.62267 7.73231 10.6813 6.47699 11.928 5.42651L11.6703 5.12061ZM11.9998 5.00849C11.8856 5.00849 11.7743 5.04459 11.6818 5.11163L11.9166 5.43549C11.9408 5.41794 11.9699 5.40849 11.9998 5.40849L11.9998 5.00849ZM9.04061 25.7247L7.08741 17.2447L6.69762 17.3345L8.65082 25.8145L9.04061 25.7247ZM9.09061 25.8045C9.06545 25.7845 9.04786 25.7565 9.04072 25.7251L8.65071 25.814C8.67801 25.9338 8.74521 26.0408 8.84128 26.1173L9.09061 25.8045ZM9.17914 25.8355C9.14698 25.8355 9.11576 25.8246 9.09061 25.8045L8.84128 26.1173C8.93735 26.1939 9.0566 26.2356 9.17947 26.2355L9.17914 25.8355ZM14.8165 25.8355L9.1793 25.8355L9.1793 26.2355L14.8165 26.2355L14.8165 25.8355ZM14.8733 25.8251C14.8559 25.8321 14.8373 25.8357 14.8185 25.8355L14.8145 26.2355C14.8862 26.2362 14.9573 26.2227 15.0237 26.1957L14.8733 25.8251ZM14.9198 25.7944C14.9065 25.8076 14.8907 25.818 14.8733 25.8251L15.0237 26.1957C15.0902 26.1687 15.1506 26.1289 15.2015 26.0784L14.9198 25.7944ZM14.9538 25.7311C14.9491 25.7551 14.9374 25.777 14.92 25.7941L15.2013 26.0786C15.2757 26.005 15.3263 25.9107 15.3464 25.808L14.9538 25.7311ZM16.9108 17.2134L14.9552 25.7248L15.345 25.8144L17.3006 17.303L16.9108 17.2134ZM15.6118 9.84166C16.8184 12.1039 17.2724 14.6919 16.9077 17.2297L17.3037 17.2866C17.6804 14.6646 17.2114 11.9907 15.9647 9.65342L15.6118 9.84166ZM8.23813 9.91611L15.7874 9.94754L15.7891 9.54754L8.2398 9.51612L8.23813 9.91611ZM7.09052 17.2614C6.72583 14.7002 7.18998 12.0894 8.41512 9.81083L8.06281 9.6214C6.79726 11.9752 6.31779 14.672 6.69451 17.3178L7.09052 17.2614Z" fill="url(#paint5_linear_128_1120)" mask="url(#path-5-inside-1_128_1120)"/>
</g>
<defs>
<filter id="filter0_bd_128_1120" x="-0.169922" y="2.01758" width="34.0771" height="41.1543" filterUnits="userSpaceOnUse" color-interpolation-filters="sRGB">
<feFlood flood-opacity="0" result="BackgroundImageFix"/>
<feGaussianBlur in="BackgroundImage" stdDeviation="7.5"/>
<feComposite in2="SourceAlpha" operator="in" result="effect1_backgroundBlur_128_1120"/>
<feColorMatrix in="SourceAlpha" type="matrix" values="0 0 0 0 0 0 0 0 0 0 0 0 0 0 0 0 0 0 127 0" result="hardAlpha"/>
<feOffset dx="5" dy="5"/>
<feGaussianBlur stdDeviation="5"/>
<feColorMatrix type="matrix" values="0 0 0 0 0.485284 0 0 0 0 0.110185 0 0 0 0 0.991667 0 0 0 0.59 0"/>
<feBlend mode="normal" in2="effect1_backgroundBlur_128_1120" result="effect2_dropShadow_128_1120"/>
<feBlend mode="normal" in="SourceGraphic" in2="effect2_dropShadow_128_1120" result="shape"/>
</filter>
<filter id="filter1_bd_128_1120" x="-9.54346" y="2.00195" width="34.0757" height="41.1484" filterUnits="userSpaceOnUse" color-interpolation-filters="sRGB">
<feFlood flood-opacity="0" result="BackgroundImageFix"/>
<feGaussianBlur in="BackgroundImage" stdDeviation="7.5"/>
<feComposite in2="SourceAlpha" operator="in" result="effect1_backgroundBlur_128_1120"/>
<feColorMatrix in="SourceAlpha" type="matrix" values="0 0 0 0 0 0 0 0 0 0 0 0 0 0 0 0 0 0 127 0" result="hardAlpha"/>
<feOffset dx="5" dy="5"/>
<feGaussianBlur stdDeviation="5"/>
<feColorMatrix type="matrix" values="0 0 0 0 0.485284 0 0 0 0 0.110185 0 0 0 0 0.991667 0 0 0 0.59 0"/>
<feBlend mode="normal" in2="effect1_backgroundBlur_128_1120" result="effect2_dropShadow_128_1120"/>
<feBlend mode="normal" in="SourceGraphic" in2="effect2_dropShadow_128_1120" result="shape"/>
</filter>
<filter id="filter2_bd_128_1120" x="-8.23047" y="-9.79102" width="40.4609" height="50.8262" filterUnits="userSpaceOnUse" color-interpolation-filters="sRGB">
<feFlood flood-opacity="0" result="BackgroundImageFix"/>
<feGaussianBlur in="BackgroundImage" stdDeviation="7.5"/>
<feComposite in2="SourceAlpha" operator="in" result="effect1_backgroundBlur_128_1120"/>
<feColorMatrix in="SourceAlpha" type="matrix" values="0 0 0 0 0 0 0 0 0 0 0 0 0 0 0 0 0 0 127 0" result="hardAlpha"/>
<feOffset dx="5" dy="5"/>
<feGaussianBlur stdDeviation="5"/>
<feColorMatrix type="matrix" values="0 0 0 0 0.485284 0 0 0 0 0.110185 0 0 0 0 0.991667 0 0 0 0.25 0"/>
<feBlend mode="normal" in2="effect1_backgroundBlur_128_1120" result="effect2_dropShadow_128_1120"/>
<feBlend mode="normal" in="SourceGraphic" in2="effect2_dropShadow_128_1120" result="shape"/>
</filter>
<linearGradient id="paint0_linear_128_1120" x1="17.1953" y1="18.4811" x2="11.8056" y2="24.115" gradientUnits="userSpaceOnUse">
<stop stop-color="#6814E2"/>
<stop offset="1" stop-color="#8125E2"/>
</linearGradient>
<linearGradient id="paint1_linear_128_1120" x1="14.1052" y1="23.5218" x2="18.3359" y2="19.3533" gradientUnits="userSpaceOnUse">
<stop stop-color="white"/>
<stop offset="1" stop-color="white" stop-opacity="0"/>
</linearGradient>
<linearGradient id="paint2_linear_128_1120" x1="7.18259" y1="18.4631" x2="12.5547" y2="24.1139" gradientUnits="userSpaceOnUse">
<stop stop-color="#6814E2"/>
<stop offset="1" stop-color="#8125E2"/>
</linearGradient>
<linearGradient id="paint3_linear_128_1120" x1="10.2569" y1="23.5135" x2="6.03929" y2="19.3317" gradientUnits="userSpaceOnUse">
<stop stop-color="white"/>
<stop offset="1" stop-color="white" stop-opacity="0"/>
</linearGradient>
<linearGradient id="paint4_linear_128_1120" x1="13.3156" y1="8.01622" x2="0.385114" y2="21.8183" gradientUnits="userSpaceOnUse">
<stop stop-color="#6814E2"/>
<stop offset="1" stop-color="#8125E2"/>
</linearGradient>
<linearGradient id="paint5_linear_128_1120" x1="5.31785" y1="19.7307" x2="15.5633" y2="9.59775" gradientUnits="userSpaceOnUse">
<stop stop-color="white"/>
<stop offset="1" stop-color="white" stop-opacity="0"/>
</linearGradient>
</defs>
</svg>
