<svg width="121" height="20" viewBox="0 0 121 20" fill="none" xmlns="http://www.w3.org/2000/svg">
<path d="M4.21522 2.248V19H0.855219V2.248H4.21522ZM14.9029 5.512C16.4869 5.512 17.7669 6.016 18.7429 7.024C19.7189 8.016 20.2069 9.408 20.2069 11.2V19H16.8469V11.656C16.8469 10.6 16.5829 9.792 16.0549 9.232C15.5269 8.656 14.8069 8.368 13.8949 8.368C12.9669 8.368 12.2309 8.656 11.6869 9.232C11.1589 9.792 10.8949 10.6 10.8949 11.656V19H7.53491V5.704H10.8949V7.36C11.3429 6.784 11.9109 6.336 12.5989 6.016C13.3029 5.68 14.0709 5.512 14.9029 5.512ZM28.4901 19.216C27.4021 19.216 26.4261 19.024 25.5621 18.64C24.6981 18.24 24.0101 17.704 23.4981 17.032C23.0021 16.36 22.7301 15.616 22.6821 14.8H26.0661C26.1301 15.312 26.3781 15.736 26.8101 16.072C27.2581 16.408 27.8101 16.576 28.4661 16.576C29.1061 16.576 29.6021 16.448 29.9541 16.192C30.3221 15.936 30.5061 15.608 30.5061 15.208C30.5061 14.776 30.2821 14.456 29.8341 14.248C29.4021 14.024 28.7061 13.784 27.7461 13.528C26.7541 13.288 25.9381 13.04 25.2981 12.784C24.6741 12.528 24.1301 12.136 23.6661 11.608C23.2181 11.08 22.9941 10.368 22.9941 9.472C22.9941 8.736 23.2021 8.064 23.6181 7.456C24.0501 6.848 24.6581 6.368 25.4421 6.016C26.2421 5.664 27.1781 5.488 28.2501 5.488C29.8341 5.488 31.0981 5.888 32.0421 6.688C32.9861 7.472 33.5061 8.536 33.6021 9.88H30.3861C30.3381 9.352 30.1141 8.936 29.7141 8.632C29.3301 8.312 28.8101 8.152 28.1541 8.152C27.5461 8.152 27.0741 8.264 26.7381 8.488C26.4181 8.712 26.2581 9.024 26.2581 9.424C26.2581 9.872 26.4821 10.216 26.9301 10.456C27.3781 10.68 28.0741 10.912 29.0181 11.152C29.9781 11.392 30.7701 11.64 31.3941 11.896C32.0181 12.152 32.5541 12.552 33.0021 13.096C33.4661 13.624 33.7061 14.328 33.7221 15.208C33.7221 15.976 33.5061 16.664 33.0741 17.272C32.6581 17.88 32.0501 18.36 31.2501 18.712C30.4661 19.048 29.5461 19.216 28.4901 19.216ZM40.3922 8.464V14.896C40.3922 15.344 40.4962 15.672 40.7042 15.88C40.9282 16.072 41.2962 16.168 41.8082 16.168H43.3682V19H41.2562C38.4242 19 37.0082 17.624 37.0082 14.872V8.464H35.4242V5.704H37.0082V2.416H40.3922V5.704H43.3682V8.464H40.3922ZM44.9209 12.304C44.9209 10.96 45.1849 9.768 45.7129 8.728C46.2569 7.688 46.9849 6.888 47.8969 6.328C48.8249 5.768 49.8569 5.488 50.9929 5.488C51.9849 5.488 52.8489 5.688 53.5849 6.088C54.3369 6.488 54.9369 6.992 55.3849 7.6V5.704H58.7689V19H55.3849V17.056C54.9529 17.68 54.3529 18.2 53.5849 18.616C52.8329 19.016 51.9609 19.216 50.9689 19.216C49.8489 19.216 48.8249 18.928 47.8969 18.352C46.9849 17.776 46.2569 16.968 45.7129 15.928C45.1849 14.872 44.9209 13.664 44.9209 12.304ZM55.3849 12.352C55.3849 11.536 55.2249 10.84 54.9049 10.264C54.5849 9.672 54.1529 9.224 53.6089 8.92C53.0649 8.6 52.4809 8.44 51.8569 8.44C51.2329 8.44 50.6569 8.592 50.1289 8.896C49.6009 9.2 49.1689 9.648 48.8329 10.24C48.5129 10.816 48.3529 11.504 48.3529 12.304C48.3529 13.104 48.5129 13.808 48.8329 14.416C49.1689 15.008 49.6009 15.464 50.1289 15.784C50.6729 16.104 51.2489 16.264 51.8569 16.264C52.4809 16.264 53.0649 16.112 53.6089 15.808C54.1529 15.488 54.5849 15.04 54.9049 14.464C55.2249 13.872 55.3849 13.168 55.3849 12.352ZM65.4105 7.768C65.8425 7.064 66.4025 6.512 67.0905 6.112C67.7945 5.712 68.5945 5.512 69.4905 5.512V9.04H68.6025C67.5465 9.04 66.7465 9.288 66.2025 9.784C65.6745 10.28 65.4105 11.144 65.4105 12.376V19H62.0505V5.704H65.4105V7.768ZM70.8897 12.304C70.8897 10.96 71.1537 9.768 71.6817 8.728C72.2257 7.688 72.9537 6.888 73.8657 6.328C74.7937 5.768 75.8257 5.488 76.9617 5.488C77.9537 5.488 78.8177 5.688 79.5537 6.088C80.3057 6.488 80.9057 6.992 81.3537 7.6V5.704H84.7377V19H81.3537V17.056C80.9217 17.68 80.3217 18.2 79.5537 18.616C78.8017 19.016 77.9297 19.216 76.9377 19.216C75.8177 19.216 74.7937 18.928 73.8657 18.352C72.9537 17.776 72.2257 16.968 71.6817 15.928C71.1537 14.872 70.8897 13.664 70.8897 12.304ZM81.3537 12.352C81.3537 11.536 81.1937 10.84 80.8737 10.264C80.5537 9.672 80.1217 9.224 79.5777 8.92C79.0337 8.6 78.4497 8.44 77.8257 8.44C77.2017 8.44 76.6257 8.592 76.0977 8.896C75.5697 9.2 75.1377 9.648 74.8017 10.24C74.4817 10.816 74.3217 11.504 74.3217 12.304C74.3217 13.104 74.4817 13.808 74.8017 14.416C75.1377 15.008 75.5697 15.464 76.0977 15.784C76.6417 16.104 77.2177 16.264 77.8257 16.264C78.4497 16.264 79.0337 16.112 79.5777 15.808C80.1217 15.488 80.5537 15.04 80.8737 14.464C81.1937 13.872 81.3537 13.168 81.3537 12.352ZM89.7233 4.12C89.1313 4.12 88.6353 3.936 88.2353 3.568C87.8513 3.184 87.6593 2.712 87.6593 2.152C87.6593 1.592 87.8513 1.128 88.2353 0.759999C88.6353 0.375999 89.1313 0.183999 89.7233 0.183999C90.3153 0.183999 90.8033 0.375999 91.1873 0.759999C91.5873 1.128 91.7873 1.592 91.7873 2.152C91.7873 2.712 91.5873 3.184 91.1873 3.568C90.8033 3.936 90.3153 4.12 89.7233 4.12ZM91.3793 5.704V19H88.0193V5.704H91.3793ZM99.787 19.216C98.699 19.216 97.723 19.024 96.859 18.64C95.995 18.24 95.307 17.704 94.795 17.032C94.299 16.36 94.027 15.616 93.979 14.8H97.363C97.427 15.312 97.675 15.736 98.107 16.072C98.555 16.408 99.107 16.576 99.763 16.576C100.403 16.576 100.899 16.448 101.251 16.192C101.619 15.936 101.803 15.608 101.803 15.208C101.803 14.776 101.579 14.456 101.131 14.248C100.699 14.024 100.003 13.784 99.043 13.528C98.051 13.288 97.235 13.04 96.595 12.784C95.971 12.528 95.427 12.136 94.963 11.608C94.515 11.08 94.291 10.368 94.291 9.472C94.291 8.736 94.499 8.064 94.915 7.456C95.347 6.848 95.955 6.368 96.739 6.016C97.539 5.664 98.475 5.488 99.547 5.488C101.131 5.488 102.395 5.888 103.339 6.688C104.283 7.472 104.803 8.536 104.899 9.88H101.683C101.635 9.352 101.411 8.936 101.011 8.632C100.627 8.312 100.107 8.152 99.451 8.152C98.843 8.152 98.371 8.264 98.035 8.488C97.715 8.712 97.555 9.024 97.555 9.424C97.555 9.872 97.779 10.216 98.227 10.456C98.675 10.68 99.371 10.912 100.315 11.152C101.275 11.392 102.067 11.64 102.691 11.896C103.315 12.152 103.851 12.552 104.299 13.096C104.763 13.624 105.003 14.328 105.019 15.208C105.019 15.976 104.803 16.664 104.371 17.272C103.955 17.88 103.347 18.36 102.547 18.712C101.763 19.048 100.843 19.216 99.787 19.216ZM120.137 12.064C120.137 12.544 120.105 12.976 120.041 13.36H110.321C110.401 14.32 110.737 15.072 111.329 15.616C111.921 16.16 112.649 16.432 113.513 16.432C114.761 16.432 115.649 15.896 116.177 14.824H119.801C119.417 16.104 118.681 17.16 117.593 17.992C116.505 18.808 115.169 19.216 113.585 19.216C112.305 19.216 111.153 18.936 110.129 18.376C109.121 17.8 108.329 16.992 107.753 15.952C107.193 14.912 106.913 13.712 106.913 12.352C106.913 10.976 107.193 9.768 107.753 8.728C108.313 7.688 109.097 6.888 110.105 6.328C111.113 5.768 112.273 5.488 113.585 5.488C114.849 5.488 115.977 5.76 116.969 6.304C117.977 6.848 118.753 7.624 119.297 8.632C119.857 9.624 120.137 10.768 120.137 12.064ZM116.657 11.104C116.641 10.24 116.329 9.552 115.721 9.04C115.113 8.512 114.369 8.248 113.489 8.248C112.657 8.248 111.953 8.504 111.377 9.016C110.817 9.512 110.473 10.208 110.345 11.104H116.657Z" fill="white"/>
</svg>
