<svg width="277" height="73" viewBox="0 0 277 73" fill="none" xmlns="http://www.w3.org/2000/svg">
<path opacity="0.4" d="M0.680001 71V1.88H13.736V71H0.680001ZM28.3263 71V1.88H41.5743L71.6223 47.96V1.88H84.8703V71H71.6223L41.5743 24.92V71H28.3263ZM124.576 72.44C119.456 72.44 114.832 71.544 110.704 69.752C106.608 67.928 103.232 65.336 100.576 61.976C97.9518 58.584 96.2878 54.552 95.5838 49.88L109.216 47.864C110.176 51.832 112.16 54.888 115.168 57.032C118.176 59.176 121.6 60.248 125.44 60.248C127.584 60.248 129.664 59.912 131.68 59.24C133.696 58.568 135.344 57.576 136.624 56.264C137.936 54.952 138.592 53.336 138.592 51.416C138.592 50.712 138.48 50.04 138.256 49.4C138.064 48.728 137.728 48.104 137.248 47.528C136.768 46.952 136.08 46.408 135.184 45.896C134.32 45.384 133.216 44.92 131.872 44.504L113.92 39.224C112.576 38.84 111.008 38.296 109.216 37.592C107.456 36.888 105.744 35.88 104.08 34.568C102.416 33.256 101.024 31.528 99.9038 29.384C98.8158 27.208 98.2718 24.472 98.2718 21.176C98.2718 16.536 99.4398 12.68 101.776 9.608C104.112 6.536 107.232 4.248 111.136 2.744C115.04 1.24 119.36 0.503996 124.096 0.535997C128.864 0.599997 133.12 1.416 136.864 2.984C140.608 4.552 143.744 6.84 146.272 9.848C148.8 12.824 150.624 16.472 151.744 20.792L137.632 23.192C137.12 20.952 136.176 19.064 134.8 17.528C133.424 15.992 131.776 14.824 129.856 14.024C127.968 13.224 125.984 12.792 123.904 12.728C121.856 12.664 119.92 12.952 118.096 13.592C116.304 14.2 114.832 15.096 113.68 16.28C112.56 17.464 112 18.872 112 20.504C112 22.008 112.464 23.24 113.392 24.2C114.32 25.128 115.488 25.88 116.896 26.456C118.304 27.032 119.744 27.512 121.216 27.896L133.216 31.16C135.008 31.64 136.992 32.28 139.168 33.08C141.344 33.848 143.424 34.936 145.408 36.344C147.424 37.72 149.072 39.544 150.352 41.816C151.664 44.088 152.32 46.968 152.32 50.456C152.32 54.168 151.536 57.416 149.968 60.2C148.432 62.952 146.352 65.24 143.728 67.064C141.104 68.856 138.128 70.2 134.8 71.096C131.504 71.992 128.096 72.44 124.576 72.44ZM179.102 71V14.072H157.31V1.88H213.95V14.072H192.158V71H179.102ZM215.189 71L236.309 1.88H255.797L276.917 71H263.477L244.661 10.04H247.157L228.629 71H215.189ZM227.861 56.6V44.408H264.341V56.6H227.861Z" fill="url(#paint0_linear_263_2801)" fill-opacity="0.2"/>
<defs>
<linearGradient id="paint0_linear_263_2801" x1="258" y1="-3.99998" x2="-84.5" y2="119" gradientUnits="userSpaceOnUse">
<stop stop-color="#D0D0E7"/>
<stop offset="1" stop-color="#DAD0E3" stop-opacity="0"/>
</linearGradient>
</defs>
</svg>
