<svg width="11" height="25" viewBox="0 0 11 25" fill="none" xmlns="http://www.w3.org/2000/svg">
<path d="M0 14.9289C1.18812 11.8903 2.29009 9.05963 3.44851 6.25567C3.55544 5.99429 4.0604 5.76854 4.39011 5.75369C5.70892 5.69726 7.03069 5.72992 8.81881 5.72992L5.01089 12.9596L7.06635 13.2002C6.34754 14.4864 5.71189 15.621 4.98714 16.9012L8.49506 17.1062C6.41585 19.919 4.58021 22.4141 2.73862 24.9062L2.14456 24.5735C2.65545 23.0883 3.16932 21.6032 3.72476 20.0022L0.267334 19.7438L2.30793 15.3745L0 14.9289Z" fill="white"/>
<path d="M10.1682 0.96875C9.95139 4.70538 8.089 5.90836 4.00781 4.8747L10.1682 0.96875Z" fill="white"/>
</svg>
