<svg width="24" height="24" viewBox="0 0 24 24" fill="none" xmlns="http://www.w3.org/2000/svg">
<path d="M12 12C10.725 12 9.75 11.025 9.75 9.75C9.75 8.475 10.725 7.5 12 7.5C13.275 7.5 14.25 8.475 14.25 9.75C14.25 11.025 13.275 12 12 12Z" fill="#DDDDDD"/>
<path d="M19.5 17.25H17.775C17.025 17.25 16.275 16.875 15.825 16.275C15.375 15.675 15.225 14.925 15.375 14.175C15.6 13.425 15.675 12.675 15.75 11.925V11.85C15.75 11.625 15.75 11.4 15.75 11.175C15.75 7.65005 14.25 4.50005 12 3.15005C9.75 4.50005 8.25 7.65005 8.25 11.175C8.25 12.225 8.4 13.275 8.625 14.25C8.85 15 8.7 15.75 8.175 16.35C7.725 16.875 7.05 17.25 6.225 17.25H4.5C4.275 17.25 4.05 17.175 3.9 16.95C3.75 16.8 3.75 16.575 3.75 16.35C4.2 14.475 5.25 12.75 6.75 11.55C6.75 11.4 6.75 11.25 6.75 11.1C6.75 6.90005 8.7 3.00005 11.7 1.57505C11.925 1.50005 12.15 1.50005 12.375 1.57505C15.3 3.00005 17.25 6.90005 17.25 11.1C17.25 11.25 17.25 11.4 17.25 11.55C18.675 12.75 19.725 14.4 20.175 16.35C20.25 16.575 20.175 16.8 20.025 17.025C19.95 17.175 19.725 17.25 19.5 17.25Z" fill="#DDDDDD"/>
<path d="M12 23.25C11.55 23.25 11.25 22.95 11.25 22.5V16.5C11.25 16.05 11.55 15.75 12 15.75C12.45 15.75 12.75 16.05 12.75 16.5V22.5C12.75 22.95 12.45 23.25 12 23.25Z" fill="#DDDDDD"/>
<path d="M9.75 21.75C9.3 21.75 9 21.45 9 21V18C9 17.55 9.3 17.25 9.75 17.25C10.2 17.25 10.5 17.55 10.5 18V21C10.5 21.45 10.2 21.75 9.75 21.75Z" fill="#DDDDDD"/>
<path d="M14.25 21.75C13.8 21.75 13.5 21.45 13.5 21V18C13.5 17.55 13.8 17.25 14.25 17.25C14.7 17.25 15 17.55 15 18V21C15 21.45 14.7 21.75 14.25 21.75Z" fill="#DDDDDD"/>
</svg>
