<svg width="24" height="24" viewBox="0 0 24 24" fill="none" xmlns="http://www.w3.org/2000/svg">
<rect width="24" height="24" rx="4" fill="#D2D5DB"/>
<path d="M12 5L20 8.2V9.26666H18.9333C18.9333 9.41111 18.8764 9.53611 18.7625 9.64166C18.6486 9.74722 18.5139 9.8 18.3583 9.8H5.64167C5.48611 9.8 5.35139 9.74722 5.2375 9.64166C5.12361 9.53611 5.06667 9.41111 5.06667 9.26666H4V8.2L12 5ZM6.13333 10.3333H8.26667V16.7333H9.33333V10.3333H11.4667V16.7333H12.5333V10.3333H14.6667V16.7333H15.7333V10.3333H17.8667V16.7333H18.3583C18.5139 16.7333 18.6486 16.7861 18.7625 16.8917C18.8764 16.9972 18.9333 17.1222 18.9333 17.2667V17.8H5.06667V17.2667C5.06667 17.1222 5.12361 16.9972 5.2375 16.8917C5.35139 16.7861 5.48611 16.7333 5.64167 16.7333H6.13333V10.3333ZM19.425 18.3333C19.5806 18.3333 19.7153 18.3861 19.8292 18.4917C19.9431 18.5972 20 18.7222 20 18.8667V19.9333H4V18.8667C4 18.7222 4.05694 18.5972 4.17083 18.4917C4.28472 18.3861 4.41945 18.3333 4.575 18.3333H19.425Z" fill="#607D8B"/>
</svg>
