<svg width="24" height="24" viewBox="0 0 24 24" fill="none" xmlns="http://www.w3.org/2000/svg">
<rect width="24" height="24" rx="4" fill="#130F1F"/>
<path d="M12 6C8.69144 6 6 8.69144 6 12C6 15.3086 8.69144 18 12 18C15.3086 18 18 15.3086 18 12C18 8.69144 15.3086 6 12 6ZM13.885 13.8328C13.7037 14.0969 13.4663 14.2951 13.1551 14.443C12.9255 14.5448 12.6865 14.6073 12.4397 14.6305V15.437C12.4397 15.5601 12.3401 15.6594 12.2173 15.6594H11.5518C11.4287 15.6594 11.3295 15.5598 11.3295 15.437V14.5608C11.2042 14.53 11.0808 14.487 10.957 14.4305C10.6244 14.2948 10.3562 14.0737 10.1681 13.7763C9.97938 13.5002 9.87794 13.1777 9.86224 12.7968C9.85721 12.6762 9.94923 12.5738 10.0695 12.5656L10.6672 12.5248C10.7874 12.5179 10.8892 12.603 10.9033 12.7204C10.9272 12.9205 10.9834 13.086 11.0663 13.1991C11.1596 13.3391 11.2792 13.4311 11.4601 13.5053C11.8433 13.6739 12.3307 13.6742 12.668 13.5445C12.8175 13.4805 12.9233 13.407 12.9934 13.3165C13.0533 13.2305 13.0829 13.14 13.0829 13.032C13.0829 12.9305 13.0568 12.8558 12.9937 12.7748C12.9607 12.7308 12.8756 12.6485 12.6517 12.559C12.5424 12.5229 12.2585 12.4422 11.8263 12.3376C11.3216 12.2117 11.0296 12.1162 10.8484 12.0179C10.5786 11.8753 10.376 11.6976 10.2488 11.4906C10.1185 11.2799 10.0526 11.0393 10.0526 10.7761C10.0526 10.4897 10.1326 10.2168 10.2903 9.96493C10.4536 9.71934 10.6945 9.52651 10.9903 9.40215C11.0892 9.35724 11.2017 9.31955 11.3298 9.2894V8.54792C11.3298 8.42481 11.4294 8.32557 11.5522 8.32557H12.2176C12.3407 8.32557 12.44 8.42512 12.44 8.54792V9.25014C12.64 9.28343 12.8253 9.334 12.9934 9.40089C13.3184 9.54693 13.5543 9.74258 13.7226 10.0029C13.8912 10.2485 13.9864 10.5434 14.003 10.8741C14.009 10.9953 13.9167 11.099 13.7954 11.1071L13.1837 11.1483C13.0656 11.1565 12.9641 11.0723 12.9481 10.9564C12.9139 10.7055 12.83 10.5302 12.6915 10.4213C12.5342 10.2871 12.3059 10.2247 11.9868 10.2247C11.6743 10.2247 11.4234 10.2853 11.2799 10.3958C11.1634 10.4856 11.1087 10.5937 11.1087 10.7356C11.1087 10.8449 11.1429 10.9306 11.2105 10.9909C11.2463 11.0192 11.4416 11.1464 12.0732 11.2792C12.5948 11.4024 12.9783 11.5145 13.1884 11.6049C13.5232 11.7557 13.7625 11.9501 13.9029 12.1837C14.0596 12.4183 14.1384 12.6809 14.1384 12.9773C14.1384 13.2857 14.0533 13.5734 13.885 13.8328Z" fill="#8040C0"/>
</svg>
