<svg width="24" height="24" viewBox="0 0 24 24" fill="none" xmlns="http://www.w3.org/2000/svg">
<rect width="24" height="24" rx="4" fill="#D2D5DB"/>
<g clip-path="url(#clip0_380_722)">
<path fill-rule="evenodd" clip-rule="evenodd" d="M18.7456 11.5162L11.5153 18.7464C11.1356 19.1262 10.5161 19.1262 10.1363 18.7464L5.25359 13.8637C4.8738 13.484 4.8738 12.8645 5.25359 12.4847L12.4838 5.25437C12.6788 5.0594 12.9182 4.96321 13.194 4.96896L17.1522 5.05259C17.624 5.06249 18.0459 5.24815 18.3988 5.60115C18.7518 5.95415 18.9375 6.37599 18.9474 6.84774L19.031 10.806C19.0368 11.0817 18.9406 11.3212 18.7456 11.5162ZM16.1032 7.89674C15.6396 7.43315 14.888 7.43315 14.4244 7.89674C13.9608 8.36034 13.9608 9.11196 14.4244 9.57553C14.888 10.0391 15.6397 10.0391 16.1033 9.57553C16.5669 9.11196 16.5669 8.36034 16.1032 7.89674Z" fill="#607D8B"/>
</g>
<defs>
<clipPath id="clip0_380_722">
<rect width="16" height="16" fill="white" transform="translate(4 4)"/>
</clipPath>
</defs>
</svg>
