<svg width="270" height="73" viewBox="0 0 270 73" fill="none" xmlns="http://www.w3.org/2000/svg">
<path opacity="0.4" d="M0.72 71V1.88H29.904C30.576 1.88 31.472 1.912 32.592 1.976C33.744 2.008 34.768 2.104 35.664 2.264C39.792 2.904 43.168 4.264 45.792 6.34399C48.448 8.424 50.4 11.048 51.648 14.216C52.896 17.352 53.52 20.856 53.52 24.728C53.52 30.52 52.08 35.48 49.2 39.608C46.32 43.704 41.808 46.232 35.664 47.192L29.904 47.576H13.776V71H0.72ZM39.696 71L26.064 42.872L39.504 40.28L54.48 71H39.696ZM13.776 35.384H29.328C30 35.384 30.736 35.352 31.536 35.288C32.336 35.224 33.072 35.096 33.744 34.904C35.504 34.424 36.864 33.624 37.824 32.504C38.784 31.352 39.44 30.088 39.792 28.712C40.176 27.304 40.368 25.976 40.368 24.728C40.368 23.48 40.176 22.168 39.792 20.792C39.44 19.384 38.784 18.12 37.824 17C36.864 15.848 35.504 15.032 33.744 14.552C33.072 14.36 32.336 14.232 31.536 14.168C30.736 14.104 30 14.072 29.328 14.072H13.776V35.384ZM60.4325 71L81.5525 1.88H101.04L122.161 71H108.72L89.9045 10.04H92.4005L73.8725 71H60.4325ZM73.1045 56.6V44.408H109.584V56.6H73.1045ZM131.924 71V1.88H144.98V71H131.924ZM185.682 72.44C180.562 72.44 175.938 71.544 171.81 69.752C167.714 67.928 164.338 65.336 161.682 61.976C159.058 58.584 157.394 54.552 156.69 49.88L170.322 47.864C171.282 51.832 173.266 54.888 176.274 57.032C179.282 59.176 182.706 60.248 186.546 60.248C188.69 60.248 190.77 59.912 192.786 59.24C194.802 58.568 196.45 57.576 197.73 56.264C199.042 54.952 199.698 53.336 199.698 51.416C199.698 50.712 199.586 50.04 199.362 49.4C199.17 48.728 198.834 48.104 198.354 47.528C197.874 46.952 197.186 46.408 196.29 45.896C195.426 45.384 194.322 44.92 192.978 44.504L175.026 39.224C173.682 38.84 172.114 38.296 170.322 37.592C168.562 36.888 166.85 35.88 165.186 34.568C163.522 33.256 162.13 31.528 161.01 29.384C159.922 27.208 159.378 24.472 159.378 21.176C159.378 16.536 160.546 12.68 162.882 9.608C165.218 6.536 168.338 4.248 172.242 2.744C176.146 1.24 180.466 0.503996 185.202 0.535997C189.97 0.599997 194.226 1.416 197.97 2.984C201.714 4.552 204.85 6.84 207.378 9.848C209.906 12.824 211.73 16.472 212.85 20.792L198.738 23.192C198.226 20.952 197.282 19.064 195.906 17.528C194.53 15.992 192.882 14.824 190.962 14.024C189.074 13.224 187.09 12.792 185.01 12.728C182.962 12.664 181.026 12.952 179.202 13.592C177.41 14.2 175.938 15.096 174.786 16.28C173.666 17.464 173.106 18.872 173.106 20.504C173.106 22.008 173.57 23.24 174.498 24.2C175.426 25.128 176.594 25.88 178.002 26.456C179.41 27.032 180.85 27.512 182.322 27.896L194.322 31.16C196.114 31.64 198.098 32.28 200.274 33.08C202.45 33.848 204.53 34.936 206.514 36.344C208.53 37.72 210.178 39.544 211.458 41.816C212.77 44.088 213.426 46.968 213.426 50.456C213.426 54.168 212.642 57.416 211.074 60.2C209.538 62.952 207.458 65.24 204.834 67.064C202.21 68.856 199.234 70.2 195.906 71.096C192.61 71.992 189.202 72.44 185.682 72.44ZM224.176 71V1.88H269.296V14.072H237.232V28.856H263.536V41.048H237.232V58.808H269.296V71H224.176Z" fill="url(#paint0_linear_263_2800)" fill-opacity="0.2"/>
<defs>
<linearGradient id="paint0_linear_263_2800" x1="254.367" y1="-3.99998" x2="-83.4828" y2="115.209" gradientUnits="userSpaceOnUse">
<stop stop-color="#D0D0E7"/>
<stop offset="1" stop-color="#DAD0E3" stop-opacity="0"/>
</linearGradient>
</defs>
</svg>
