<svg width="20" height="20" viewBox="0 0 20 20" fill="none" xmlns="http://www.w3.org/2000/svg">
<path d="M7.50179 16.1354C7.30708 16.1357 7.11839 16.0679 6.96846 15.9437C6.88408 15.8737 6.81433 15.7878 6.7632 15.6909C6.71207 15.5939 6.68057 15.4878 6.67051 15.3787C6.66045 15.2695 6.67202 15.1595 6.70455 15.0548C6.73709 14.9501 6.78996 14.8529 6.86013 14.7687L10.5935 10.302L6.99346 5.82703C6.92424 5.74179 6.87254 5.64371 6.84135 5.53843C6.81016 5.43315 6.80008 5.32274 6.8117 5.21355C6.82331 5.10436 6.85639 4.99854 6.90904 4.90218C6.96168 4.80581 7.03285 4.7208 7.11846 4.65203C7.20468 4.57617 7.30565 4.51895 7.41504 4.48396C7.52442 4.44897 7.63986 4.43696 7.7541 4.4487C7.86835 4.46044 7.97893 4.49566 8.07892 4.55216C8.1789 4.60866 8.26613 4.68522 8.33513 4.77703L12.3601 9.77703C12.4827 9.92615 12.5497 10.1132 12.5497 10.3062C12.5497 10.4992 12.4827 10.6863 12.3601 10.8354L8.19346 15.8354C8.10986 15.9362 8.00367 16.0159 7.88349 16.0681C7.76332 16.1202 7.63255 16.1432 7.50179 16.1354Z" fill="#607D8B"/>
</svg>
