<svg width="50" height="52" viewBox="0 0 50 52" fill="none" xmlns="http://www.w3.org/2000/svg">
<circle cx="25" cy="25" r="25" fill="#F4EFF9"/>
<path d="M26.0889 18.1421C26.0889 18.0009 26.0465 17.878 25.9613 17.7762C25.8777 17.6726 25.7394 17.5945 25.5469 17.5391V18.7852C25.7069 18.7505 25.8377 18.6743 25.9374 18.5571C26.0386 18.4399 26.0889 18.302 26.0889 18.1421Z" fill="#EDE5F8"/>
<path d="M25.0842 15.3965C24.9589 15.441 24.8615 15.5139 24.7889 15.6159C24.7153 15.7181 24.6797 15.8302 24.6797 15.9529C24.6797 16.0649 24.7122 16.169 24.7786 16.2657C24.8453 16.3612 24.9473 16.4396 25.0841 16.4982V15.3965H25.0842Z" fill="#EEE6F9"/>
<g filter="url(#filter0_bd_128_1128)">
<path d="M28.248 28.1751C28.9692 28.3718 29.6503 28.4724 30.2751 28.4724C31.3631 28.4724 32.2745 28.176 32.9846 27.591C34.1485 26.6305 34.6456 24.985 34.4219 22.8325C34.4014 22.6345 34.2636 22.4685 34.0727 22.4119C33.2682 22.1728 32.5107 22.0517 31.8216 22.0517C30.7335 22.0517 29.8221 22.3481 29.1128 22.933C28.0033 23.8483 27.5009 25.3867 27.6495 27.3917L25.8051 28.6157L25.8054 21.445C27.9226 21.2014 29.572 19.4076 29.572 17.2369C29.572 14.9007 27.6617 13 25.3135 13C22.965 13 21.0544 14.9007 21.0544 17.2369C21.0544 19.4076 22.7041 21.2014 24.8216 21.445L24.8212 31.5783L22.0165 30.1799C22.0705 28.2049 21.4773 26.6499 20.3281 25.7801C19.6502 25.2665 18.807 25.0062 17.8218 25.0062C17.0689 25.0062 16.2374 25.1601 15.3509 25.4639C15.1625 25.5284 15.0316 25.7001 15.0193 25.8988C14.8853 28.0586 15.4505 29.6821 16.6541 30.594C17.3493 31.1202 18.2185 31.387 19.2378 31.3871C19.9343 31.3871 20.6857 31.2585 21.4721 31.0079L24.8209 32.6774L24.8207 36.5082C24.8207 36.7797 25.0409 37 25.3125 37C25.5841 37 25.8045 36.7799 25.8045 36.5082L25.8049 29.7963L28.248 28.1751ZM23.7537 18.1267L24.5819 18.0289C24.6159 18.1988 24.6801 18.3442 24.7736 18.467C24.8672 18.5896 24.97 18.6778 25.0845 18.7333V17.4022C24.6701 17.2836 24.3668 17.1043 24.1744 16.8646C23.9811 16.6232 23.8837 16.3319 23.8837 15.9886C23.8837 15.6408 23.9941 15.3487 24.2122 15.1126C24.431 14.8757 24.7209 14.7398 25.0845 14.7042V14.3912H25.5478V14.7042C25.8873 14.7445 26.1571 14.8595 26.3582 15.0496C26.5585 15.2399 26.6869 15.494 26.7425 15.8124L25.9328 15.9168C25.8833 15.667 25.755 15.4975 25.5478 15.4084V16.6502C26.0605 16.7872 26.4091 16.9666 26.594 17.1847C26.7803 17.4046 26.8724 17.6858 26.8724 18.029C26.8724 18.4129 26.7564 18.7355 26.5221 18.9985C26.2884 19.2612 25.9644 19.4245 25.5478 19.4894V20.083H25.0845V19.4962C24.7195 19.4514 24.4226 19.3168 24.193 19.0896C23.9632 18.8626 23.8178 18.5408 23.7537 18.1267Z" fill="url(#paint0_linear_128_1128)"/>
<path d="M28.3006 27.9821L28.213 27.9583L28.1374 28.0084L25.6943 29.6297L25.6049 29.689L25.6049 29.7963L25.6045 36.5082C25.6045 36.6693 25.4738 36.8 25.3125 36.8C25.1514 36.8 25.0207 36.6693 25.0207 36.5082L25.0209 32.6774L25.0209 32.5536L24.9101 32.4984L21.5613 30.8289L21.4887 30.7927L21.4114 30.8173C20.6408 31.0629 19.9101 31.1871 19.2378 31.1871C18.2545 31.187 17.4297 30.9302 16.7749 30.4345C15.6455 29.579 15.0871 28.0353 15.2189 25.9112L15.2189 25.9111C15.2262 25.7933 15.3039 25.6914 15.4157 25.6531C16.2863 25.3548 17.0955 25.2062 17.8218 25.2062C18.7707 25.2062 19.5696 25.4563 20.2073 25.9395L20.2074 25.9395C21.2871 26.7568 21.8695 28.2375 21.8166 30.1745L21.8131 30.302L21.9273 30.3589L24.7319 31.7572L25.0212 31.9014L25.0212 31.5783L25.0216 21.445L25.0216 21.2667L24.8445 21.2463C22.8258 21.0141 21.2544 19.3038 21.2544 17.2369C21.2544 15.0121 23.0745 13.2 25.3135 13.2C27.5522 13.2 29.372 15.0121 29.372 17.2369C29.372 19.3039 27.801 21.0141 25.7825 21.2463L25.6054 21.2667L25.6054 21.445L25.6051 28.6157L25.6051 28.9885L25.9157 28.7823L27.7601 27.5584L27.8576 27.4937L27.8489 27.377C27.7031 25.4085 28.199 23.9461 29.24 23.0873C29.9071 22.5372 30.771 22.2517 31.8216 22.2517C32.4878 22.2517 33.2258 22.3689 34.0158 22.6036L34.0727 22.4119L34.0158 22.6036C34.1291 22.6372 34.2108 22.7357 34.223 22.8531L34.223 22.8532C34.443 24.9702 33.9494 26.5355 32.8574 27.4366C32.1895 27.987 31.3256 28.2724 30.2751 28.2724C29.6714 28.2724 29.0081 28.1751 28.3006 27.9821ZM23.7303 17.9281L23.5244 17.9524L23.5561 18.1573C23.6246 18.6003 23.7837 18.9663 24.0524 19.2319C24.2785 19.4555 24.5584 19.5979 24.8845 19.6659V20.083V20.283H25.0845H25.5478H25.7478V20.083V19.6546C26.1243 19.5683 26.4356 19.3966 26.6715 19.1314C26.9417 18.8282 27.0724 18.4568 27.0724 18.029C27.0724 17.6484 26.9694 17.3183 26.7466 17.0554C26.543 16.8153 26.1986 16.6349 25.7478 16.4991V16.0117L25.773 16.139L25.9584 16.1151L26.7681 16.0108L26.9756 15.9841L26.9396 15.778C26.8778 15.4245 26.7323 15.1291 26.4959 14.9046L26.4956 14.9043C26.2953 14.715 26.043 14.594 25.7478 14.5338V14.3912V14.1912H25.5478H25.0845H24.8845V14.3912V14.5313C24.5585 14.5948 24.2827 14.7415 24.0653 14.9769C23.8105 15.2528 23.6837 15.5944 23.6837 15.9886C23.6837 16.3725 23.7937 16.7092 24.0183 16.9896L24.0184 16.9897C24.2196 17.2405 24.5142 17.4235 24.8845 17.5492V18.2744C24.8359 18.1931 24.8 18.0991 24.778 17.9896L24.7418 17.8086L24.5585 17.8303L23.7303 17.9281Z" stroke="url(#paint1_linear_128_1128)" stroke-width="0.4"/>
</g>
<defs>
<filter id="filter0_bd_128_1128" x="0" y="-2" width="49.4741" height="54" filterUnits="userSpaceOnUse" color-interpolation-filters="sRGB">
<feFlood flood-opacity="0" result="BackgroundImageFix"/>
<feGaussianBlur in="BackgroundImage" stdDeviation="7.5"/>
<feComposite in2="SourceAlpha" operator="in" result="effect1_backgroundBlur_128_1128"/>
<feColorMatrix in="SourceAlpha" type="matrix" values="0 0 0 0 0 0 0 0 0 0 0 0 0 0 0 0 0 0 127 0" result="hardAlpha"/>
<feOffset dx="5" dy="5"/>
<feGaussianBlur stdDeviation="5"/>
<feColorMatrix type="matrix" values="0 0 0 0 0.352941 0 0 0 0 0.117647 0 0 0 0 0.670588 0 0 0 0.25 0"/>
<feBlend mode="normal" in2="effect1_backgroundBlur_128_1128" result="effect2_dropShadow_128_1128"/>
<feBlend mode="normal" in="SourceGraphic" in2="effect2_dropShadow_128_1128" result="shape"/>
</filter>
<linearGradient id="paint0_linear_128_1128" x1="33.0935" y1="17.3339" x2="11.3932" y2="17.908" gradientUnits="userSpaceOnUse">
<stop stop-color="#6814E2"/>
<stop offset="1" stop-color="#8024E2"/>
</linearGradient>
<linearGradient id="paint1_linear_128_1128" x1="18.1" y1="15.796" x2="33.7609" y2="31.5347" gradientUnits="userSpaceOnUse">
<stop stop-color="white" stop-opacity="0.25"/>
<stop offset="1" stop-color="white" stop-opacity="0"/>
</linearGradient>
</defs>
</svg>
