<svg width="52" height="52" viewBox="0 0 52 52" fill="none" xmlns="http://www.w3.org/2000/svg">
<circle cx="25" cy="25" r="25" fill="#F4EFF9"/>
<g filter="url(#filter0_bd_128_1140)">
<path d="M17.5 29.5C19.9853 29.5 22 27.4853 22 25C22 22.5147 19.9853 20.5 17.5 20.5C15.0147 20.5 13 22.5147 13 25C13 27.4853 15.0147 29.5 17.5 29.5Z" fill="url(#paint0_linear_128_1140)"/>
<path d="M21.8 25C21.8 27.3748 19.8748 29.3 17.5 29.3C15.1252 29.3 13.2 27.3748 13.2 25C13.2 22.6252 15.1252 20.7 17.5 20.7C19.8748 20.7 21.8 22.6252 21.8 25Z" stroke="url(#paint1_linear_128_1140)" stroke-width="0.4"/>
</g>
<g filter="url(#filter1_bd_128_1140)">
<path d="M32.5 22C34.9853 22 37 19.9853 37 17.5C37 15.0147 34.9853 13 32.5 13C30.0147 13 28 15.0147 28 17.5C28 19.9853 30.0147 22 32.5 22Z" fill="url(#paint2_linear_128_1140)"/>
<path d="M36.8 17.5C36.8 19.8748 34.8748 21.8 32.5 21.8C30.1252 21.8 28.2 19.8748 28.2 17.5C28.2 15.1252 30.1252 13.2 32.5 13.2C34.8748 13.2 36.8 15.1252 36.8 17.5Z" stroke="url(#paint3_linear_128_1140)" stroke-width="0.4"/>
</g>
<g filter="url(#filter2_bd_128_1140)">
<path d="M32.5 37C34.9853 37 37 34.9853 37 32.5C37 30.0147 34.9853 28 32.5 28C30.0147 28 28 30.0147 28 32.5C28 34.9853 30.0147 37 32.5 37Z" fill="url(#paint4_linear_128_1140)"/>
<path d="M36.8 32.5C36.8 34.8748 34.8748 36.8 32.5 36.8C30.1252 36.8 28.2 34.8748 28.2 32.5C28.2 30.1252 30.1252 28.2 32.5 28.2C34.8748 28.2 36.8 30.1252 36.8 32.5Z" stroke="url(#paint5_linear_128_1140)" stroke-width="0.4"/>
</g>
<path d="M22 25H26.5L29.5 21.25" stroke="url(#paint6_linear_128_1140)" stroke-linecap="round" stroke-linejoin="round"/>
<path d="M29.5 28.75L26.5 25" stroke="url(#paint7_linear_128_1140)" stroke-linecap="round" stroke-linejoin="round"/>
<defs>
<filter id="filter0_bd_128_1140" x="-2" y="5.5" width="39" height="39" filterUnits="userSpaceOnUse" color-interpolation-filters="sRGB">
<feFlood flood-opacity="0" result="BackgroundImageFix"/>
<feGaussianBlur in="BackgroundImage" stdDeviation="7.5"/>
<feComposite in2="SourceAlpha" operator="in" result="effect1_backgroundBlur_128_1140"/>
<feColorMatrix in="SourceAlpha" type="matrix" values="0 0 0 0 0 0 0 0 0 0 0 0 0 0 0 0 0 0 127 0" result="hardAlpha"/>
<feOffset dx="5" dy="5"/>
<feGaussianBlur stdDeviation="5"/>
<feColorMatrix type="matrix" values="0 0 0 0 0.352941 0 0 0 0 0.117647 0 0 0 0 0.670588 0 0 0 0.25 0"/>
<feBlend mode="normal" in2="effect1_backgroundBlur_128_1140" result="effect2_dropShadow_128_1140"/>
<feBlend mode="normal" in="SourceGraphic" in2="effect2_dropShadow_128_1140" result="shape"/>
</filter>
<filter id="filter1_bd_128_1140" x="13" y="-2" width="39" height="39" filterUnits="userSpaceOnUse" color-interpolation-filters="sRGB">
<feFlood flood-opacity="0" result="BackgroundImageFix"/>
<feGaussianBlur in="BackgroundImage" stdDeviation="7.5"/>
<feComposite in2="SourceAlpha" operator="in" result="effect1_backgroundBlur_128_1140"/>
<feColorMatrix in="SourceAlpha" type="matrix" values="0 0 0 0 0 0 0 0 0 0 0 0 0 0 0 0 0 0 127 0" result="hardAlpha"/>
<feOffset dx="5" dy="5"/>
<feGaussianBlur stdDeviation="5"/>
<feColorMatrix type="matrix" values="0 0 0 0 0.352941 0 0 0 0 0.117647 0 0 0 0 0.670588 0 0 0 0.25 0"/>
<feBlend mode="normal" in2="effect1_backgroundBlur_128_1140" result="effect2_dropShadow_128_1140"/>
<feBlend mode="normal" in="SourceGraphic" in2="effect2_dropShadow_128_1140" result="shape"/>
</filter>
<filter id="filter2_bd_128_1140" x="13" y="13" width="39" height="39" filterUnits="userSpaceOnUse" color-interpolation-filters="sRGB">
<feFlood flood-opacity="0" result="BackgroundImageFix"/>
<feGaussianBlur in="BackgroundImage" stdDeviation="7.5"/>
<feComposite in2="SourceAlpha" operator="in" result="effect1_backgroundBlur_128_1140"/>
<feColorMatrix in="SourceAlpha" type="matrix" values="0 0 0 0 0 0 0 0 0 0 0 0 0 0 0 0 0 0 127 0" result="hardAlpha"/>
<feOffset dx="5" dy="5"/>
<feGaussianBlur stdDeviation="5"/>
<feColorMatrix type="matrix" values="0 0 0 0 0.352941 0 0 0 0 0.117647 0 0 0 0 0.670588 0 0 0 0.25 0"/>
<feBlend mode="normal" in2="effect1_backgroundBlur_128_1140" result="effect2_dropShadow_128_1140"/>
<feBlend mode="normal" in="SourceGraphic" in2="effect2_dropShadow_128_1140" result="shape"/>
</filter>
<linearGradient id="paint0_linear_128_1140" x1="17.5" y1="20.5" x2="17.5" y2="29.5" gradientUnits="userSpaceOnUse">
<stop stop-color="#6B16E2"/>
<stop offset="1" stop-color="#7920E2"/>
</linearGradient>
<linearGradient id="paint1_linear_128_1140" x1="14.4327" y1="21.5485" x2="20.1737" y2="28.6589" gradientUnits="userSpaceOnUse">
<stop stop-color="white" stop-opacity="0.25"/>
<stop offset="1" stop-color="white" stop-opacity="0"/>
</linearGradient>
<linearGradient id="paint2_linear_128_1140" x1="32.5" y1="13" x2="32.5" y2="22" gradientUnits="userSpaceOnUse">
<stop stop-color="#6B16E2"/>
<stop offset="1" stop-color="#7920E2"/>
</linearGradient>
<linearGradient id="paint3_linear_128_1140" x1="29.4327" y1="14.0485" x2="35.1737" y2="21.1589" gradientUnits="userSpaceOnUse">
<stop stop-color="white" stop-opacity="0.25"/>
<stop offset="1" stop-color="white" stop-opacity="0"/>
</linearGradient>
<linearGradient id="paint4_linear_128_1140" x1="32.5" y1="28" x2="32.5" y2="37" gradientUnits="userSpaceOnUse">
<stop stop-color="#6B16E2"/>
<stop offset="1" stop-color="#7920E2"/>
</linearGradient>
<linearGradient id="paint5_linear_128_1140" x1="29.4327" y1="29.0485" x2="35.1737" y2="36.1589" gradientUnits="userSpaceOnUse">
<stop stop-color="white" stop-opacity="0.25"/>
<stop offset="1" stop-color="white" stop-opacity="0"/>
</linearGradient>
<linearGradient id="paint6_linear_128_1140" x1="30.25" y1="24.85" x2="27.7672" y2="18.6431" gradientUnits="userSpaceOnUse">
<stop stop-color="#711AE2"/>
<stop offset="1" stop-color="#771EE2"/>
</linearGradient>
<linearGradient id="paint7_linear_128_1140" x1="29.8" y1="28.6" x2="26.2" y2="25" gradientUnits="userSpaceOnUse">
<stop stop-color="#711AE2"/>
<stop offset="1" stop-color="#771EE2"/>
</linearGradient>
</defs>
</svg>
