<svg width="20" height="20" viewBox="0 0 20 20" fill="#fff" xmlns="http://www.w3.org/2000/svg">
<path fill-rule="evenodd" clip-rule="evenodd" d="M9.6 0C9.91826 0 10.2235 0.126428 10.4485 0.351472C10.6736 0.576515 10.8 0.88174 10.8 1.2V2.4C10.8 2.71826 10.6736 3.02348 10.4485 3.24853C10.2235 3.47357 9.91826 3.6 9.6 3.6C9.28174 3.6 8.97651 3.47357 8.75147 3.24853C8.52643 3.02348 8.4 2.71826 8.4 2.4V1.2C8.4 0.88174 8.52643 0.576515 8.75147 0.351472C8.97651 0.126428 9.28174 0 9.6 0ZM14.4 9.6C14.4 10.873 13.8943 12.0939 12.9941 12.9941C12.0939 13.8943 10.873 14.4 9.6 14.4C8.32696 14.4 7.10606 13.8943 6.20589 12.9941C5.30571 12.0939 4.8 10.873 4.8 9.6C4.8 8.32696 5.30571 7.10606 6.20589 6.20589C7.10606 5.30571 8.32696 4.8 9.6 4.8C10.873 4.8 12.0939 5.30571 12.9941 6.20589C13.8943 7.10606 14.4 8.32696 14.4 9.6ZM13.8432 15.54L14.6916 16.3884C14.9179 16.607 15.221 16.7279 15.5357 16.7252C15.8503 16.7225 16.1513 16.5963 16.3738 16.3738C16.5963 16.1513 16.7225 15.8503 16.7252 15.5357C16.7279 15.221 16.607 14.9179 16.3884 14.6916L15.54 13.8432C15.3137 13.6246 15.0106 13.5037 14.6959 13.5064C14.3813 13.5091 14.0803 13.6353 13.8578 13.8578C13.6353 14.0803 13.5091 14.3813 13.5064 14.6959C13.5037 15.0106 13.6246 15.3137 13.8432 15.54ZM16.3872 2.8116C16.6122 3.03663 16.7385 3.3418 16.7385 3.66C16.7385 3.9782 16.6122 4.28337 16.3872 4.5084L15.54 5.3568C15.4293 5.47141 15.2969 5.56283 15.1505 5.62572C15.0041 5.68861 14.8466 5.72172 14.6873 5.7231C14.5279 5.72448 14.3699 5.69412 14.2225 5.63379C14.075 5.57345 13.941 5.48435 13.8283 5.37167C13.7157 5.259 13.6266 5.12502 13.5662 4.97754C13.5059 4.83007 13.4755 4.67205 13.4769 4.51272C13.4783 4.35338 13.5114 4.19592 13.5743 4.04951C13.6372 3.90311 13.7286 3.7707 13.8432 3.66L14.6916 2.8116C14.9166 2.58663 15.2218 2.46026 15.54 2.46026C15.8582 2.46026 16.1634 2.58663 16.3884 2.8116H16.3872ZM18 10.8C18.3183 10.8 18.6235 10.6736 18.8485 10.4485C19.0736 10.2235 19.2 9.91826 19.2 9.6C19.2 9.28174 19.0736 8.97651 18.8485 8.75147C18.6235 8.52643 18.3183 8.4 18 8.4H16.8C16.4817 8.4 16.1765 8.52643 15.9515 8.75147C15.7264 8.97651 15.6 9.28174 15.6 9.6C15.6 9.91826 15.7264 10.2235 15.9515 10.4485C16.1765 10.6736 16.4817 10.8 16.8 10.8H18ZM9.6 15.6C9.91826 15.6 10.2235 15.7264 10.4485 15.9515C10.6736 16.1765 10.8 16.4817 10.8 16.8V18C10.8 18.3183 10.6736 18.6235 10.4485 18.8485C10.2235 19.0736 9.91826 19.2 9.6 19.2C9.28174 19.2 8.97651 19.0736 8.75147 18.8485C8.52643 18.6235 8.4 18.3183 8.4 18V16.8C8.4 16.4817 8.52643 16.1765 8.75147 15.9515C8.97651 15.7264 9.28174 15.6 9.6 15.6ZM3.66 5.3568C3.77141 5.46829 3.9037 5.55675 4.04929 5.61712C4.19489 5.67749 4.35096 5.70859 4.50858 5.70864C4.66619 5.7087 4.82228 5.67771 4.96792 5.61744C5.11356 5.55718 5.24591 5.46881 5.3574 5.3574C5.46889 5.24599 5.55735 5.1137 5.61772 4.9681C5.67809 4.82251 5.70919 4.66644 5.70924 4.50882C5.7093 4.35121 5.67831 4.19512 5.61804 4.04948C5.55778 3.90384 5.46941 3.77149 5.358 3.66L4.5084 2.8116C4.28208 2.59301 3.97895 2.47206 3.66432 2.47479C3.34968 2.47753 3.04871 2.60373 2.82622 2.82622C2.60373 3.04871 2.47753 3.34968 2.47479 3.66432C2.47206 3.97895 2.59301 4.28208 2.8116 4.5084L3.66 5.3568ZM5.3568 15.54L4.5084 16.3884C4.28208 16.607 3.97895 16.7279 3.66432 16.7252C3.34968 16.7225 3.04871 16.5963 2.82622 16.3738C2.60373 16.1513 2.47753 15.8503 2.47479 15.5357C2.47206 15.221 2.59301 14.9179 2.8116 14.6916L3.66 13.8432C3.88632 13.6246 4.18945 13.5037 4.50408 13.5064C4.81872 13.5091 5.11969 13.6353 5.34218 13.8578C5.56467 14.0803 5.69087 14.3813 5.69361 14.6959C5.69634 15.0106 5.57539 15.3137 5.3568 15.54ZM2.4 10.8C2.71826 10.8 3.02348 10.6736 3.24853 10.4485C3.47357 10.2235 3.6 9.91826 3.6 9.6C3.6 9.28174 3.47357 8.97651 3.24853 8.75147C3.02348 8.52643 2.71826 8.4 2.4 8.4H1.2C0.88174 8.4 0.576515 8.52643 0.351472 8.75147C0.126428 8.97651 0 9.28174 0 9.6C0 9.91826 0.126428 10.2235 0.351472 10.4485C0.576515 10.6736 0.88174 10.8 1.2 10.8H2.4Z" fill="#fff"/>
</svg>
