<svg width="24" height="24" viewBox="0 0 24 24" fill="none" xmlns="http://www.w3.org/2000/svg">
<rect width="24" height="24" rx="4" fill="#130F1F"/>
<path fill-rule="evenodd" clip-rule="evenodd" d="M20.0003 6.33342C20.0879 6.39908 20.1616 6.48134 20.2174 6.57551C20.2731 6.66967 20.3098 6.7739 20.3253 6.88223C20.3408 6.99057 20.3347 7.10089 20.3076 7.2069C20.2804 7.31291 20.2327 7.41254 20.167 7.50008L15.167 14.1668C15.0392 14.3372 14.8509 14.4523 14.6409 14.4882C14.4309 14.5242 14.2151 14.4783 14.0378 14.3601L9.69366 11.4643L5.16699 17.5001C5.10133 17.5876 5.01907 17.6614 4.9249 17.7171C4.83074 17.7729 4.72651 17.8096 4.61818 17.825C4.50984 17.8405 4.39952 17.8345 4.29351 17.8073C4.1875 17.7802 4.08787 17.7324 4.00033 17.6668C3.91278 17.6011 3.83902 17.5188 3.78326 17.4247C3.72751 17.3305 3.69084 17.2263 3.67537 17.1179C3.65989 17.0096 3.6659 16.8993 3.69306 16.7933C3.72022 16.6873 3.768 16.5876 3.83366 16.5001L8.83366 9.83342C8.96148 9.66295 9.14974 9.54791 9.35975 9.51195C9.56977 9.476 9.78557 9.52185 9.96283 9.64009L14.307 12.5359L18.8337 6.50009C18.9663 6.32327 19.1637 6.20638 19.3825 6.17513C19.6013 6.14387 19.8235 6.20081 20.0003 6.33342Z" fill="#8040C0"/>
</svg>
