<svg width="24" height="24" viewBox="0 0 24 24" fill="none" xmlns="http://www.w3.org/2000/svg">
<rect width="24" height="24" rx="4" fill="#D2D5DB"/>
<path fill-rule="evenodd" clip-rule="evenodd" d="M20 6.33333C20.0875 6.39899 20.1613 6.48125 20.217 6.57542C20.2728 6.66958 20.3094 6.77381 20.3249 6.88214C20.3404 6.99048 20.3344 7.1008 20.3072 7.20681C20.2801 7.31282 20.2323 7.41245 20.1666 7.49999L15.1666 14.1667C15.0388 14.3371 14.8505 14.4522 14.6405 14.4881C14.4305 14.5241 14.2147 14.4782 14.0375 14.36L9.69329 11.4642L5.16663 17.5C5.10097 17.5875 5.0187 17.6613 4.92454 17.7171C4.83037 17.7728 4.72615 17.8095 4.61781 17.825C4.50948 17.8404 4.39915 17.8344 4.29314 17.8073C4.18713 17.7801 4.08751 17.7323 3.99996 17.6667C3.91241 17.601 3.83865 17.5187 3.7829 17.4246C3.72714 17.3304 3.69048 17.2262 3.675 17.1178C3.65953 17.0095 3.66554 16.8992 3.6927 16.7932C3.71986 16.6872 3.76763 16.5875 3.83329 16.5L8.83329 9.83333C8.96111 9.66286 9.14937 9.54782 9.35939 9.51186C9.5694 9.4759 9.78521 9.52176 9.96246 9.63999L14.3066 12.5358L18.8333 6.49999C18.9659 6.32318 19.1633 6.20629 19.3821 6.17504C19.6009 6.14378 19.8231 6.20072 20 6.33333Z" fill="#607D8B"/>
</svg>
