<svg width="24" height="24" viewBox="0 0 24 24" fill="none" xmlns="http://www.w3.org/2000/svg">
<rect width="24" height="24" rx="4" fill="#D2D5DB"/>
<path d="M12 6.10744L4.33964 13.7678C3.69146 14.4159 3.69146 15.4766 4.33964 16.1248L7.87518 19.6603C8.52336 20.3085 9.58402 20.3085 10.2322 19.6603L14.1802 15.7123C13.8267 16.0659 13.3553 16.0659 13.0017 15.7123C12.8839 15.5945 12.8249 15.5355 12.766 15.3588L12.1178 13.0607L10.2322 14.9463C10.1733 15.0052 10.1143 15.0641 9.9965 15.0641L9.93757 15.1231L9.87865 15.182L9.7608 15.182C9.70187 15.2409 9.64294 15.182 9.58402 15.2409C9.46617 15.2409 9.40724 15.182 9.28939 15.182C9.23047 15.1231 9.23047 15.1231 9.17154 15.0641L9.11261 15.0052C9.11261 15.0052 9.11261 15.0052 9.05369 14.9463C8.99476 14.8873 8.93584 14.7106 8.87691 14.6516C8.87691 14.6516 8.87691 14.6516 8.81799 14.5927L7.81625 10.8804C7.6984 10.409 7.99303 9.99653 8.40551 9.81975C8.87691 9.7019 9.28939 9.99653 9.46617 10.409L10.0554 12.766L12 10.8215C12 10.8215 12 10.8215 12.0589 10.7626C12.1178 10.7036 12.2946 10.6447 12.3535 10.5858C12.3535 10.5858 12.3535 10.5858 12.4124 10.5269L12.5303 10.5269C12.5892 10.4679 12.6481 10.5269 12.7071 10.4679C12.8249 10.4679 12.8839 10.5269 13.0017 10.5269C13.0606 10.5858 13.0606 10.5858 13.1196 10.6447L13.1785 10.7036C13.1785 10.7036 13.1785 10.7036 13.2374 10.7626C13.2963 10.8215 13.3553 10.9983 13.4142 11.0572C13.4142 11.0572 13.4142 11.0572 13.4731 11.1161L14.4748 14.8284C14.4748 15.182 14.357 15.5355 14.1802 15.7123L17.8925 12C18.5407 11.3518 18.5407 10.2912 17.8925 9.64297L14.357 6.10744C13.7088 5.45926 12.6481 5.45926 12 6.10744ZM16.1248 5.51818C15.7712 5.87174 15.7712 6.34314 16.1248 6.69669L17.3033 7.87521C17.6568 8.22876 18.1282 8.22876 18.4818 7.87521C18.8353 7.52165 18.8353 7.05025 18.4818 6.6967L17.3033 5.51818C16.9497 5.16463 16.4783 5.16463 16.1248 5.51818Z" fill="#607D8B"/>
</svg>
