<svg width="24" height="24" viewBox="0 0 24 24" fill="none" xmlns="http://www.w3.org/2000/svg">
<path d="M15.6005 12.0005C15.6005 12.9553 15.2212 13.871 14.5461 14.5461C13.8709 15.2212 12.9552 15.6005 12.0005 15.6005C11.0457 15.6005 10.13 15.2212 9.45488 14.5461C8.77975 13.871 8.40047 12.9553 8.40047 12.0005C8.40047 11.7953 8.42207 11.5949 8.45927 11.4005H7.20047V16.1969C7.20047 16.5305 7.47047 16.8005 7.80407 16.8005H16.1981C16.3579 16.8002 16.5112 16.7365 16.6241 16.6233C16.737 16.5102 16.8005 16.3568 16.8005 16.1969V11.4005H15.5417C15.5789 11.5949 15.6005 11.7953 15.6005 12.0005ZM12.0005 14.4005C12.3157 14.4005 12.6279 14.3383 12.9191 14.2176C13.2103 14.0969 13.4749 13.92 13.6978 13.697C13.9206 13.474 14.0974 13.2093 14.218 12.918C14.3385 12.6268 14.4005 12.3146 14.4005 11.9993C14.4004 11.6841 14.3382 11.3719 14.2175 11.0807C14.0968 10.7895 13.9199 10.5249 13.6969 10.302C13.474 10.0792 13.2093 9.9024 12.918 9.78184C12.6267 9.66127 12.3145 9.59925 11.9993 9.59933C11.3626 9.59949 10.7521 9.85256 10.302 10.3029C9.85188 10.7532 9.59911 11.3639 9.59927 12.0005C9.59943 12.6372 9.8525 13.2477 10.3028 13.6978C10.7531 14.1479 11.3638 14.4007 12.0005 14.4005ZM14.8805 9.48053H16.3193C16.4149 9.48053 16.5065 9.44264 16.5743 9.37516C16.642 9.30768 16.6802 9.21612 16.6805 9.12053V7.68173C16.6805 7.58593 16.6424 7.49406 16.5747 7.42632C16.5069 7.35858 16.4151 7.32053 16.3193 7.32053H14.8805C14.7847 7.32053 14.6928 7.35858 14.6251 7.42632C14.5573 7.49406 14.5193 7.58593 14.5193 7.68173V9.12053C14.5205 9.31853 14.6825 9.48053 14.8805 9.48053ZM12.0005 0.48053C8.94518 0.48053 6.01502 1.69424 3.8546 3.85466C1.69418 6.01508 0.480469 8.94524 0.480469 12.0005C0.480469 15.0558 1.69418 17.986 3.8546 20.1464C6.01502 22.3068 8.94518 23.5205 12.0005 23.5205C13.5133 23.5205 15.0113 23.2226 16.409 22.6436C17.8067 22.0647 19.0766 21.2161 20.1463 20.1464C21.2161 19.0767 22.0646 17.8067 22.6436 16.409C23.2225 15.0114 23.5205 13.5134 23.5205 12.0005C23.5205 10.4877 23.2225 8.98969 22.6436 7.59202C22.0646 6.19435 21.2161 4.92439 20.1463 3.85466C19.0766 2.78493 17.8067 1.93637 16.409 1.35744C15.0113 0.778503 13.5133 0.48053 12.0005 0.48053ZM18.0005 16.6673C18.0005 17.4005 17.4005 18.0005 16.6673 18.0005H7.33367C6.60047 18.0005 6.00047 17.4005 6.00047 16.6673V7.33373C6.00047 6.60053 6.60047 6.00053 7.33367 6.00053H16.6673C17.4005 6.00053 18.0005 6.60053 18.0005 7.33373V16.6673Z" fill="white"/>
</svg>
