<svg width="24" height="24" viewBox="0 0 24 24" fill="none" xmlns="http://www.w3.org/2000/svg">
<path d="M11.52 6.10352e-05C5.1576 6.10352e-05 0 5.15766 0 11.5201C0 17.8825 5.1576 23.0401 11.52 23.0401C17.8824 23.0401 23.04 17.8825 23.04 11.5201C23.04 5.15766 17.8824 6.10352e-05 11.52 6.10352e-05ZM8.7 16.2949H6.3672V8.78766H8.7V16.2949ZM7.5192 7.86606C6.7824 7.86606 6.306 7.34406 6.306 6.69846C6.306 6.03966 6.7968 5.53326 7.5492 5.53326C8.3016 5.53326 8.7624 6.03966 8.7768 6.69846C8.7768 7.34406 8.3016 7.86606 7.5192 7.86606ZM17.22 16.2949H14.8872V12.1345C14.8872 11.1661 14.5488 10.5085 13.7052 10.5085C13.0608 10.5085 12.678 10.9537 12.5088 11.3821C12.4464 11.5345 12.4308 11.7505 12.4308 11.9653V16.2937H10.0968V11.1817C10.0968 10.2445 10.0668 9.46086 10.0356 8.78646H12.0624L12.1692 9.82926H12.216C12.5232 9.33966 13.2756 8.61726 14.5344 8.61726C16.0692 8.61726 17.22 9.64566 17.22 11.8561V16.2949Z" fill="white"/>
</svg>
