
<svg width="28" height="28" viewBox="0 0 28 28" fill="none" xmlns="http://www.w3.org/2000/svg">
<path d="M13.993 2.3335C11.6855 2.3335 9.42989 3.01773 7.51131 4.29968C5.59274 5.58163 4.09739 7.40372 3.21437 9.53552C2.33135 11.6673 2.10031 14.0131 2.55047 16.2762C3.00063 18.5393 4.11177 20.6181 5.74339 22.2497C7.375 23.8814 9.4538 24.9925 11.7169 25.4427C13.98 25.8928 16.3258 25.6618 18.4576 24.7788C20.5894 23.8957 22.4115 22.4004 23.6934 20.4818C24.9754 18.5632 25.6596 16.3076 25.6596 14.0002C25.6596 12.4681 25.3579 10.951 24.7716 9.53552C24.1853 8.12006 23.3259 6.83393 22.2425 5.75058C21.1592 4.66723 19.8731 3.80787 18.4576 3.22157C17.0421 2.63526 15.5251 2.3335 13.993 2.3335ZM17.703 20.0108C17.6594 20.1198 17.5931 20.2182 17.5083 20.2995C17.4236 20.3807 17.3225 20.4428 17.2118 20.4817C17.101 20.5206 16.9832 20.5354 16.8663 20.525C16.7494 20.5146 16.6361 20.4793 16.534 20.4215L13.3665 17.9598L11.3341 19.8358C11.287 19.8707 11.2318 19.8931 11.1737 19.901C11.1156 19.909 11.0564 19.9022 11.0016 19.8813L11.3913 16.3942L11.403 16.4047L11.4111 16.3358C11.4111 16.3358 17.1103 11.1465 17.3425 10.926C17.5781 10.7055 17.5 10.6577 17.5 10.6577C17.514 10.3893 17.0788 10.6577 17.0788 10.6577L9.52697 15.5157L6.3828 14.4447C6.3828 14.4447 5.8998 14.272 5.8543 13.8905C5.80647 13.5125 6.39797 13.3072 6.39797 13.3072L18.9011 8.3395C18.9011 8.3395 19.929 7.88216 19.929 8.6405L17.703 20.0108Z" fill="#6A757E"/>
</svg>
