
<svg width="30" height="30" viewBox="0 0 30 30" fill="none" xmlns="http://www.w3.org/2000/svg">
<path d="M14.9926 2.5C12.5203 2.5 10.1035 3.23311 8.04793 4.60663C5.99232 5.98015 4.39016 7.93238 3.44407 10.2165C2.49797 12.5005 2.25043 15.0139 2.73274 17.4386C3.21506 19.8634 4.40557 22.0907 6.15372 23.8388C7.90188 25.587 10.1292 26.7775 12.5539 27.2598C14.9787 27.7421 17.492 27.4946 19.7761 26.5485C22.0602 25.6024 24.0124 24.0002 25.3859 21.9446C26.7594 19.889 27.4926 17.4723 27.4926 15C27.4926 13.3585 27.1692 11.733 26.5411 10.2165C25.9129 8.69989 24.9921 7.3219 23.8314 6.16117C22.6707 5.00043 21.2927 4.07969 19.7761 3.45151C18.2595 2.82332 16.6341 2.5 14.9926 2.5ZM18.9676 21.44C18.9209 21.5568 18.8498 21.6622 18.759 21.7492C18.6683 21.8363 18.5599 21.9029 18.4413 21.9445C18.3226 21.9862 18.1964 22.002 18.0712 21.9909C17.9459 21.9798 17.8245 21.9419 17.7151 21.88L14.3213 19.2425L12.1438 21.2525C12.0933 21.2898 12.0342 21.3138 11.9719 21.3224C11.9097 21.3309 11.8463 21.3236 11.7876 21.3013L12.2051 17.565L12.2176 17.5762L12.2263 17.5025C12.2263 17.5025 18.3326 11.9425 18.5813 11.7062C18.8338 11.47 18.7501 11.4188 18.7501 11.4188C18.7651 11.1313 18.2988 11.4188 18.2988 11.4188L10.2076 16.6237L6.83881 15.4762C6.83881 15.4762 6.32131 15.2913 6.27256 14.8825C6.22131 14.4775 6.85506 14.2575 6.85506 14.2575L20.2513 8.935C20.2513 8.935 21.3526 8.445 21.3526 9.2575L18.9676 21.44Z" fill="white"/>
</svg>
