<svg width="24" height="24" viewBox="0 0 24 24" fill="none" xmlns="http://www.w3.org/2000/svg">
<path d="M11.52 6.10352e-05C5.15829 6.10352e-05 0 5.15835 0 11.5201C0 17.8818 5.15829 23.0401 11.52 23.0401C17.8817 23.0401 23.04 17.8818 23.04 11.5201C23.04 5.15835 17.8817 6.10352e-05 11.52 6.10352e-05ZM17.0563 8.68378C17.064 8.80463 17.064 8.93063 17.064 9.05406C17.064 12.8289 14.1891 17.1772 8.93571 17.1772C7.31571 17.1772 5.814 16.7066 4.54886 15.8966C4.78029 15.9223 5.00143 15.9326 5.238 15.9326C6.57514 15.9326 7.80429 15.4801 8.784 14.7138C7.52914 14.6881 6.47486 13.8652 6.11486 12.7338C6.55457 12.7981 6.95057 12.7981 7.40314 12.6823C6.75701 12.5511 6.17625 12.2002 5.75953 11.6892C5.34281 11.1783 5.11582 10.5388 5.11714 9.87949V9.84349C5.49514 10.0569 5.94 10.1881 6.40543 10.2061C6.01417 9.9453 5.69329 9.59203 5.47126 9.17757C5.24922 8.7631 5.13289 8.30025 5.13257 7.83006C5.13257 7.29778 5.27143 6.81178 5.52086 6.39006C6.23804 7.27293 7.13297 7.995 8.14748 8.50935C9.162 9.02369 10.2734 9.3188 11.4094 9.37549C11.0057 7.43406 12.456 5.86292 14.1994 5.86292C15.0223 5.86292 15.7629 6.20749 16.2849 6.76292C16.9303 6.64206 17.5474 6.40035 18.0977 6.07635C17.8843 6.7372 17.4369 7.2952 16.8429 7.64749C17.4189 7.58578 17.9743 7.42635 18.4886 7.20263C18.1003 7.77349 17.6143 8.28006 17.0563 8.68378Z" fill="white"/>
</svg>
