<svg width="24" height="24" viewBox="0 0 24 24" fill="none" xmlns="http://www.w3.org/2000/svg">
<rect width="24" height="24" rx="12" fill="white"/>
<path d="M6.91483 8.84275C6.923 8.76159 6.91206 8.67965 6.88289 8.60348C6.85371 8.52731 6.80712 8.45902 6.74683 8.40408L5.5015 6.89275V6.66675H9.36683L12.3548 13.2701L14.9815 6.66675H18.6668V6.89275L17.6022 7.92008C17.557 7.95491 17.5222 8.00134 17.5015 8.05442C17.4807 8.10749 17.4747 8.16521 17.4842 8.22141V15.7774C17.4747 15.8336 17.4807 15.8913 17.5015 15.9444C17.5222 15.9975 17.557 16.0439 17.6022 16.0787L18.6422 17.1067V17.3334H13.4128V17.1074L14.4902 16.0541C14.5962 15.9474 14.5962 15.9161 14.5962 15.7534V9.64542L11.6015 17.3081H11.1975L7.71083 9.64542V14.7814C7.68216 14.9967 7.7535 15.2147 7.90416 15.3707L9.30483 17.0827V17.3081H5.3335V17.0827L6.7335 15.3707C6.80757 15.2935 6.86255 15.1999 6.89403 15.0976C6.92552 14.9953 6.93264 14.887 6.91483 14.7814V8.84275Z" fill="#6713E2"/>
</svg>
