<svg width="24" height="24" viewBox="0 0 24 24" fill="none" xmlns="http://www.w3.org/2000/svg">
<rect width="24" height="24" rx="12" fill="white"/>
<path d="M18.9735 8.00008C18.4602 8.23341 17.9069 8.38675 17.3335 8.46008C17.9202 8.10675 18.3735 7.54675 18.5869 6.87341C18.0335 7.20675 17.4202 7.44008 16.7735 7.57341C16.2469 7.00008 15.5069 6.66675 14.6669 6.66675C13.1002 6.66675 11.8202 7.94675 11.8202 9.52675C11.8202 9.75341 11.8469 9.97341 11.8935 10.1801C9.52019 10.0601 7.40686 8.92008 6.00019 7.19341C5.75352 7.61341 5.61352 8.10675 5.61352 8.62675C5.61352 9.62008 6.11352 10.5001 6.88686 11.0001C6.41352 11.0001 5.97352 10.8667 5.58686 10.6667V10.6867C5.58686 12.0734 6.57352 13.2334 7.88019 13.4934C7.46067 13.6082 7.02025 13.6242 6.59352 13.5401C6.77459 14.1084 7.12921 14.6057 7.60753 14.962C8.08585 15.3184 8.66382 15.5159 9.26019 15.5267C8.24928 16.327 6.99619 16.7596 5.70686 16.7534C5.48019 16.7534 5.25352 16.7401 5.02686 16.7134C6.29352 17.5267 7.80019 18.0001 9.41352 18.0001C14.6669 18.0001 17.5535 13.6401 17.5535 9.86008C17.5535 9.73341 17.5535 9.61341 17.5469 9.48675C18.1069 9.08675 18.5869 8.58008 18.9735 8.00008Z" fill="#6713E2"/>
</svg>
